<!-- Generator: Adobe Illustrator 19.0.0, SVG Export Plug-In  -->
<svg version="1.1"
	 xmlns="http://www.w3.org/2000/svg" xmlns:xlink="http://www.w3.org/1999/xlink" xmlns:a="http://ns.adobe.com/AdobeSVGViewerExtensions/3.0/"
	 x="0px" y="0px" width="224.6px" height="281.2px" viewBox="0 0 224.6 281.2" style="enable-background:new 0 0 224.6 281.2;"
	 xml:space="preserve">
<style type="text/css">
	.st0{fill:#FFFFFF;}
</style>
<defs>
</defs>
<g id="XMLID_624_">
	<path id="XMLID_625_" class="st0" d="M0.7,107.4L0,106.5c1.1-0.9,2-2,2.7-3.2H0.4v-1h2.8c0.2-0.4,0.3-0.9,0.5-1.3l1.1,0.1
		c-0.1,0.4-0.3,0.8-0.4,1.2h4.8v1H3.9c-0.4,0.8-0.8,1.5-1.3,2.1v4.9h-1v-3.7C1.2,106.9,1,107.1,0.7,107.4z M5.4,105.6v-1.7h1.1v1.7
		h2.3v1H6.5v2.3h2.7v1H2.9v-1h2.5v-2.3H3.3v-1H5.4z M15,110.2c-0.6,0-1.2-0.1-1.6-0.2c-0.4-0.1-0.7-0.3-1-0.7
		c-0.1-0.2-0.3-0.2-0.4-0.2c-0.2,0-0.5,0.4-1,1.3l-0.8-0.7c0.5-0.8,0.9-1.3,1.3-1.5v-2.7h-1.3v-1h2.3v3.8l0.1,0.1
		c0.2,0.3,0.5,0.5,0.7,0.6c0.3,0.1,0.7,0.2,1.3,0.2c0.6,0,1.2,0,2,0c0.5,0,1,0,1.5,0c0.5,0,0.9,0,1.2-0.1l-0.2,1h-2.3
		C16.2,110.2,15.6,110.2,15,110.2z M12.8,102.8l-0.7,0.7c-0.4-0.5-0.9-1-1.7-1.6l0.7-0.7C11.8,101.7,12.3,102.2,12.8,102.8z
		 M15.7,102.1c-0.1-0.3-0.3-0.5-0.4-0.8l0.9-0.3c0.2,0.4,0.4,0.8,0.5,1.1h2.4v0.9h-6v-0.9H15.7z M18.5,106.1v2.6h-4.9v-2.6H18.5z
		 M18.4,103.5v0.8h-4.6v-0.8H18.4z M18.4,104.8v0.8h-4.6v-0.8H18.4z M17.5,106.9h-2.9v0.9h2.9V106.9z M23.1,101.5
		c-0.2,0.7-0.5,1.4-0.9,2.1v6.8h-1v-5.2c-0.3,0.3-0.5,0.6-0.8,0.9L20,105c1-1.1,1.7-2.4,2.2-4L23.1,101.5z M29.1,110.3h-0.9v-0.6h-4
		v0.6h-0.9v-8.9h5.9V110.3z M28.1,108.8v-6.6h-4v6.6H28.1z M25.7,103.7v-1h0.9v1h1.3v0.9h-1.3v0.9h1v2.9h-2.8v-2.9h0.9v-0.9h-1.3
		v-0.9H25.7z M26.7,106.3h-1.2v1.4h1.2V106.3z M30.9,105.4l-0.9-0.3c0.3-1,0.4-2.2,0.5-3.3l0.9,0.1c0,0.4,0,0.8-0.1,1.1h0.4v-2h1v2
		h0.7v1h-0.7v2c0.2-0.1,0.4-0.2,0.6-0.3v1c-0.2,0.1-0.4,0.2-0.6,0.3v3.3h-1v-2.9c-0.4,0.2-0.9,0.3-1.4,0.5l-0.2-1
		c0.5-0.1,1.1-0.3,1.6-0.4v-2.4h-0.5C31.1,104.5,31,105,30.9,105.4z M35.6,101.3c-0.1,0.4-0.2,0.9-0.3,1.3H39c0,3.5,0,5.6-0.1,6.4
		c-0.1,0.9-0.7,1.3-1.7,1.3c-0.1,0-0.4,0-0.8,0l-0.2-0.9c0.3,0,0.6,0,0.8,0c0.5,0,0.8-0.3,0.9-0.8c0.1-0.5,0.1-2.1,0.1-4.9h-0.4
		c-0.2,1.6-0.5,2.9-0.9,3.8c-0.5,1.1-1.1,2-2,2.9l-0.6-0.8c0.8-0.7,1.4-1.6,1.8-2.5c0.3-0.8,0.6-2,0.8-3.4h-0.5
		c-0.4,2.1-1.2,3.7-2.3,4.7l-0.7-0.8c1-0.8,1.6-2.1,2-3.9h-0.4c-0.2,0.6-0.5,1.1-0.9,1.5l-0.8-0.6c0.6-0.8,1.1-1.9,1.3-3.4
		L35.6,101.3z M42.9,103.2c0.7,0.9,1.4,1.8,2.1,2.8l-0.7,0.7c-0.1-0.1-0.2-0.3-0.2-0.4v3.3c0.9-0.6,1.5-1.4,1.8-2.4
		c0.2-0.8,0.3-1.8,0.3-3.1h1c0,0.7,0,1.3-0.1,1.9c0.4,1.5,1.2,2.7,2.3,3.6l-0.7,0.8c-0.8-0.8-1.5-1.7-1.9-2.8c-0.3,1.1-1,2-2.1,2.8
		l-0.6-0.7v0.3h-2.2v0.5h-1v-4.2l-0.3,0.3l-0.5-0.8c0.7-0.7,1.4-1.6,2-2.6H42.9z M42.3,101.8c-0.5,0.7-1,1.3-1.5,1.8l-0.7-0.7
		c0.6-0.5,1.1-1.1,1.5-1.7L42.3,101.8z M44,106.1c-0.6-0.9-1-1.6-1.4-2c-0.5,0.7-1,1.4-1.7,2H44z M43.1,109v-1.9h-1.3v1.9H43.1z
		 M44.7,102.7l-0.7,0.7c-0.3-0.5-0.8-1-1.4-1.6l0.6-0.6C43.8,101.7,44.3,102.2,44.7,102.7z M46.5,101.2c-0.1,0.5-0.1,0.9-0.2,1.3
		h2.8v0.7c-0.1,0.8-0.3,1.7-0.5,2.5l-1-0.3c0.2-0.6,0.3-1.2,0.5-1.9h-2c-0.2,0.7-0.5,1.3-0.9,1.8l-0.8-0.5c0.6-0.9,1-2.1,1.2-3.7
		L46.5,101.2z M52.2,110.3h-1V106c-0.2,0.7-0.5,1.4-0.9,2l-0.4-1c0.6-0.9,1-1.9,1.2-3h-1V103h1v-1.9h1v1.9h0.9v0.9h-0.9v0.5
		c0.4,0.4,0.8,0.9,1.2,1.5l-0.6,0.9c-0.2-0.5-0.5-0.8-0.6-1.1V110.3z M55.8,105.1v-0.3h-2.6v-0.9h6.1v0.9h-2.6v0.3h2.1v3.6h-1.1
		c0.6,0.2,1.2,0.5,1.7,0.9l-0.5,0.8c-0.7-0.5-1.4-0.9-2.1-1.1l0.4-0.5h-1.8l0.5,0.5c-0.6,0.5-1.3,0.9-2.1,1.2l-0.6-0.8
		c0.7-0.3,1.4-0.6,1.9-0.9h-1.3v-3.6H55.8z M54.5,101.7v-0.6h1v0.6h1.5v-0.6h1v0.6h1.1v0.8H58v1.1h-3.5v-1.1h-1.1v-0.8H54.5z
		 M55.8,106.5v-0.6h-1.1v0.6H55.8z M55.8,107.3h-1.1v0.6h1.1V107.3z M55.5,102.9h1.5v-0.4h-1.5V102.9z M56.8,106.5h1.1v-0.6h-1.1
		V106.5z M57.9,107.3h-1.1v0.6h1.1V107.3z M62.5,105l-0.7,0.7c-0.4-0.4-0.9-0.9-1.6-1.5l0.7-0.7C61.5,104,62,104.5,62.5,105z
		 M62.5,106.6c-0.4,1.3-0.8,2.5-1.3,3.6l-1-0.4c0.5-1.1,0.9-2.3,1.3-3.5L62.5,106.6z M62.7,102.4l-0.7,0.7c-0.4-0.4-0.9-0.8-1.5-1.3
		l0.7-0.7C61.7,101.6,62.3,102,62.7,102.4z M64.4,105.7c0,1.3-0.2,2.3-0.4,2.9c-0.2,0.6-0.6,1.2-1.2,1.7l-0.7-0.8
		c0.4-0.4,0.8-0.8,0.9-1.3c0.2-0.5,0.3-1.3,0.3-2.4H64.4z M62.9,104.6c0.1,0,0.2-0.1,0.2-0.1c0.3-0.2,0.7-0.7,1.3-1.5h-1.5V102h2.6
		c-0.1-0.3-0.2-0.6-0.4-0.8l1.1-0.2c0.1,0.3,0.2,0.6,0.4,1H69v0.9h-3.6c-0.4,0.7-0.7,1.2-1,1.5c0.9-0.1,1.9-0.1,2.8-0.3
		c-0.2-0.2-0.4-0.5-0.5-0.7l0.8-0.5c0.7,0.8,1.2,1.5,1.6,2.2l-0.9,0.6c-0.1-0.2-0.3-0.5-0.4-0.7c-1.5,0.2-3,0.3-4.7,0.4L62.9,104.6z
		 M66.1,105.7v4.4H65v-4.4H66.1z M67.9,110.2c-0.7,0-1.1-0.3-1.1-0.9v-3.6h1v3.4c0,0.1,0,0.2,0.1,0.2h0.3c0.1,0,0.2-0.2,0.2-0.4
		c0-0.3,0-0.6,0-1.1l0.9,0.3c0,1-0.1,1.6-0.2,1.8c-0.1,0.2-0.4,0.3-0.9,0.4H67.9z M73.9,109.7h-1v-0.5h-1.5v0.8h-1v-7.3h1
		c0.2-0.5,0.3-1.1,0.4-1.6l1,0.1c-0.1,0.5-0.3,1-0.4,1.5h1.5V109.7z M72.9,105.4v-1.7h-1.5v1.7H72.9z M72.9,108.3v-1.9h-1.5v1.9
		H72.9z M78.9,109.2c-0.1,0.7-0.6,1-1.4,1c-0.2,0-0.6,0-1.1-0.1l-0.2-0.9c0.4,0,0.8,0,1.2,0c0.4,0,0.6-0.2,0.6-0.6
		c0.1-0.5,0.1-2.1,0.1-5h-2.4c-0.3,0.6-0.6,1.1-1,1.6l-0.6-0.8c0.7-0.9,1.1-2.1,1.3-3.5l1,0.1c-0.1,0.5-0.2,1-0.4,1.5h3
		C79,106.2,79,108.4,78.9,109.2z M77.2,107.3l-0.8,0.6c-0.4-0.7-0.9-1.4-1.5-2.2l0.8-0.5C76.3,105.9,76.8,106.7,77.2,107.3z
		 M80.4,107.5l-0.3-1.1c1.3-1,2.1-2.1,2.6-3h-2.4v-1h1.3c-0.1-0.4-0.3-0.7-0.4-1l1-0.3c0.2,0.5,0.3,0.9,0.5,1.3h1.1v0.9
		c-0.2,0.7-0.6,1.4-1.2,2.1c0.5,0.3,1.1,0.7,1.5,1.1l-0.6,0.9c-0.3-0.3-0.7-0.6-1-0.9v3.9h-1v-3.8C81.2,106.8,80.8,107.2,80.4,107.5
		z M86.9,101.2v2.8h2.2v1h-2.2v4h2.4v1h-5.9v-1h2.5v-4h-2.1v-1h2.1v-2.8H86.9z M90.6,104.2l-0.6-0.9c1.6-0.6,3.1-1.4,4.4-2.2H95
		c1.3,0.8,2.7,1.6,4.4,2.2l-0.6,0.9c-0.2-0.1-0.3-0.1-0.5-0.2v2.6h-7.2V104C90.9,104,90.8,104.1,90.6,104.2z M96.7,103.2v0.3h-4
		v-0.3c-0.4,0.2-0.9,0.5-1.4,0.7h6.8C97.6,103.6,97.2,103.4,96.7,103.2z M97.9,110.4h-1v-0.3h-4.5v0.3h-1v-3.4h6.5V110.4z
		 M94.2,104.6H92v1.2h2.2V104.6z M97,108.1v-0.4h-4.5v0.4H97z M97,109.2v-0.4h-4.5v0.4H97z M93.7,105.6l-0.7,0.2
		c-0.1-0.3-0.3-0.6-0.5-0.9l0.7-0.2C93.4,104.9,93.6,105.2,93.7,105.6z M94.7,102c-0.4,0.3-0.8,0.5-1.2,0.8H96
		C95.5,102.5,95.1,102.2,94.7,102z M97.4,104.6h-2.2v1.2h2.2V104.6z M96.8,104.8c-0.1,0.4-0.3,0.7-0.5,0.9l-0.7-0.2
		c0.2-0.2,0.3-0.5,0.4-0.9L96.8,104.8z M102.6,105.1l-0.7,0.7c-0.4-0.5-1-1-1.8-1.5l0.7-0.7C101.5,104,102.1,104.5,102.6,105.1z
		 M102.9,106.7c-0.5,1.3-1,2.4-1.6,3.5l-1-0.4c0.7-1.1,1.2-2.3,1.7-3.5L102.9,106.7z M102.9,102.7l-0.7,0.7c-0.4-0.5-1.1-1-1.9-1.5
		l0.7-0.7C101.8,101.7,102.4,102.2,102.9,102.7z M103.1,106.7v-0.9h2.5v-1h1v1h2.5v0.9h-1.7c0.4,0.8,1.1,1.5,2,2.1l-0.7,0.8
		c-1-0.9-1.7-1.9-2.1-2.9h-0.1v3.6h-1v-3.6h-0.1c-0.5,1.2-1.3,2.2-2.5,3l-0.5-0.9c1-0.6,1.7-1.3,2.2-2.1H103.1z M108.9,103.4h-1
		v-1.1h-3.8v1.1h-1v-2h5.7V103.4z M105.7,103.2c-0.4,0.9-1,1.6-1.7,2.1l-0.8-0.6c0.7-0.4,1.3-1,1.6-1.8L105.7,103.2z M108.7,104.7
		l-0.8,0.6c-0.4-0.6-0.9-1.3-1.6-2l0.8-0.5C107.7,103.5,108.3,104.1,108.7,104.7z M113.7,103.5v0.8c-0.5,2.2-1.5,3.9-3,5l-0.7-0.9
		c1.3-0.9,2.1-2.3,2.6-4h-2.3v-1H113.7z M118.8,103.2c-0.8,0.9-1.5,1.7-2.3,2.3c0.8,1.2,1.7,2.2,2.9,3l-0.6,1
		c-1.6-1.3-2.7-2.7-3.4-4.2v3.9c0,0.7-0.3,1.1-1,1.1H113l-0.2-1c0.4,0,0.8,0.1,1.2,0.1c0.2,0,0.3-0.1,0.3-0.4v-7.8h1.1v2.1
		c0.2,0.6,0.4,1.1,0.7,1.6c0.7-0.6,1.4-1.4,2-2.2L118.8,103.2z M128.9,101.4v1h-7.1v6.6h7.3v1h-8.4v-8.6H128.9z M125.1,105.8v2.8
		h-2.9v-2.8H125.1z M127.6,102.8v2.6h-4.7v-2.6H127.6z M124.2,106.7h-1.1v1.1h1.1V106.7z M126.6,103.7h-2.7v0.7h2.7V103.7z
		 M128.6,105.8v2.8h-2.9v-2.8H128.6z M127.7,106.7h-1.1v1.1h1.1V106.7z M138.2,102.7v2.8h-3v0.3h3.3v0.7h-3.3v0.3h3.8v0.8h-1.3
		l0.6,0.4c-0.2,0.3-0.5,0.5-0.7,0.6l-0.2,0.1c0.6,0.2,1.2,0.4,1.9,0.6l-0.6,0.9c-1.8-0.5-3.1-1.3-4-2.4c-0.5,0.3-0.9,0.5-1.4,0.7
		l-0.1,0.1v0.6c0.7-0.1,1.3-0.3,1.9-0.5l0.2,0.9c-0.9,0.3-1.9,0.5-3.1,0.7l-0.2-0.8c0.2-0.1,0.4-0.2,0.4-0.4V109
		c-0.5,0.2-1,0.3-1.6,0.5l-0.5-0.9c0.9-0.1,1.7-0.4,2.5-0.6c0.2-0.1,0.5-0.2,0.7-0.3h-3v-0.8h3.8v-0.3h-3.4v-0.7h3.4v-0.3h-3v-2.8
		H138.2z M135.2,101.6h3.8v0.8h-8.7v-0.8h3.8c-0.1-0.1-0.2-0.3-0.2-0.4l1.1-0.2C135.1,101.2,135.1,101.4,135.2,101.6z M134.2,103.8
		v-0.3h-2v0.3H134.2z M134.2,104.5h-2v0.3h2V104.5z M135.2,103.8h2v-0.3h-2V103.8z M137.2,104.5h-2v0.3h2V104.5z M136.6,108.4
		c0.1-0.1,0.3-0.2,0.4-0.3c0.2-0.1,0.3-0.3,0.4-0.4h-1.7C135.9,107.9,136.2,108.2,136.6,108.4z M142.3,108.1
		c0.2,0.2,0.3,0.5,0.3,0.9c0,0.5-0.2,1-0.5,1.4c-0.3,0.4-0.7,0.7-1.2,0.8v-0.7c0.3-0.1,0.5-0.3,0.7-0.5c0.2-0.2,0.3-0.5,0.3-0.7
		c-0.1,0-0.1,0-0.2,0c-0.2,0-0.4-0.1-0.5-0.2s-0.2-0.3-0.2-0.6c0-0.2,0.1-0.4,0.2-0.6c0.1-0.1,0.3-0.2,0.6-0.2
		C141.9,107.8,142.1,107.9,142.3,108.1z"/>
</g>
<g id="XMLID_587_">
	<path id="XMLID_588_" class="st0" d="M4.8,123.7c-0.5,0.2-1.1,0.3-1.7,0.5v2c0,0.7-0.3,1-1,1H1l-0.2-1c0.3,0,0.7,0.1,1,0.1
		c0.2,0,0.3-0.1,0.3-0.3v-1.5c-0.6,0.1-1.2,0.2-1.8,0.3l-0.1-1c0.7-0.1,1.3-0.2,1.9-0.3v-1.7H0.1v-1h1.9v-0.9
		c-0.5,0.1-1,0.2-1.5,0.2l-0.2-1c1.4-0.1,2.6-0.4,3.7-0.9l0.4,1c-0.4,0.1-0.8,0.3-1.3,0.4v1.2h2c-0.1-0.8-0.1-1.6-0.1-2.5h1
		c0,1,0,1.8,0.1,2.5h3v1H6.4c0.1,0.6,0.1,1.2,0.3,1.6c0,0.2,0.1,0.3,0.1,0.4c0.4-0.5,0.8-1.1,1.1-1.7l0.9,0.5
		c-0.4,0.9-1,1.7-1.6,2.3c0.1,0.2,0.2,0.4,0.3,0.6c0.3,0.4,0.5,0.7,0.6,0.7c0.1,0,0.2-0.5,0.3-1.5l0.9,0.5c-0.3,1.4-0.6,2.1-1.1,2.1
		c-0.4,0-0.9-0.3-1.4-0.9c-0.2-0.2-0.3-0.5-0.5-0.8c-0.7,0.6-1.4,1-2.3,1.3L3.5,126c0.9-0.3,1.7-0.8,2.4-1.4c-0.1-0.3-0.2-0.6-0.3-1
		c-0.1-0.5-0.3-1.2-0.3-1.9H3.2v1.5c0.6-0.1,1.1-0.3,1.7-0.5V123.7z M9.1,119.5l-0.7,0.7c-0.4-0.4-1-0.9-1.7-1.4l0.7-0.7
		C8,118.6,8.6,119.1,9.1,119.5z M10.4,123.2l-0.4-1.1c0.8-1.1,1.4-2.5,1.8-4.1l0.9,0.4c-0.2,0.6-0.4,1.2-0.6,1.7v7.1h-1v-5.2
		C10.9,122.5,10.6,122.9,10.4,123.2z M15.7,122.5H14v4.8h-1v-8.9h2.7V122.5z M14.7,119.3H14v0.7h0.8V119.3z M14,121.7h0.8v-0.8H14
		V121.7z M16.2,122.5v-4.1H19v7.9c0,0.6-0.3,0.9-0.9,0.9c-0.4,0-0.8,0-1.2,0l-0.3-0.9c0.4,0,0.7,0,1.1,0c0.2,0,0.3-0.1,0.3-0.3v-3.4
		H16.2z M18.1,119.3h-0.8v0.7h0.8V119.3z M17.2,121.7h0.8v-0.8h-0.8V121.7z M20.2,123.5v-0.9h8.9v0.9h-3.8v0.8h2.8v0.9h-2.8v1
		c0.4,0,1,0.1,1.5,0.1c0.9,0,1.6,0,2.2,0l-0.3,1c-0.7,0-1.3,0-1.9,0c-1.7,0-2.8-0.1-3.4-0.4c-0.5-0.2-0.9-0.6-1.3-1.1
		c-0.4,0.7-0.9,1.2-1.4,1.7l-0.7-0.9c0.9-0.7,1.5-1.6,1.8-2.8l1,0.2c-0.1,0.3-0.2,0.7-0.3,1c0.4,0.6,0.8,1,1.3,1.1
		c0.1,0,0.2,0.1,0.3,0.1v-2.6H20.2z M27.9,118.4v3.6h-6.3v-3.6H27.9z M26.8,119.8v-0.5h-4.2v0.5H26.8z M26.8,120.6h-4.2v0.5h4.2
		V120.6z M37.8,123.4v2.1h-1l-0.3,0.6h2.7v0.9h-8.9v-0.9h2.6l-0.3-0.6h-1v-2.1H37.8z M39,122.6h-1v-0.8h-6.6v0.8h-1V121H39V122.6z
		 M34.2,118.6v-0.5h1v0.5h3.7v0.8h-3.7v0.4h3.1v0.8h-7.1v-0.8h3v-0.4h-3.6v-0.8H34.2z M37.6,122.2v0.8h-5.9v-0.8H37.6z M36.8,124.2
		h-4.2v0.6h4.2V124.2z M35.4,126.2l0.3-0.6h-2l0.3,0.6H35.4z M42.1,122.8c-0.1,0.2-0.1,0.5-0.2,0.7h2.5v3.7h-0.9v-0.5h-1.2v0.5h-0.9
		v-2.5c-0.2,0.4-0.5,0.7-0.8,1.1L40,125c0.5-0.5,0.9-1.2,1.1-2.1h-0.6V122h0.8c0-0.3,0.1-0.6,0.1-0.9h-1.2v-0.9h1.3l0-0.9h-1v-0.9
		h3.6v1.7h0.5v0.9h-0.5v1.8H42.1z M43.5,125.8v-1.4h-1.2v1.4H43.5z M42.3,122h0.9v-0.9h-0.8C42.4,121.4,42.3,121.7,42.3,122z
		 M42.5,120.2h0.7v-0.9h-0.7C42.5,119.6,42.5,119.9,42.5,120.2z M44.8,120.9v-1h1c-0.2-0.5-0.4-1-0.7-1.4l0.9-0.4
		c0.3,0.5,0.5,1,0.8,1.5l-0.6,0.3h0.9c0.3-0.6,0.5-1.2,0.7-1.9l1,0.3c-0.2,0.6-0.4,1.1-0.6,1.5h0.9v1h-1.5v1.1h1.3v1h-1.3v1.1h1.8v1
		h-1.8v2.2h-1v-2.2h-1.7v-1h1.7V123h-1.4v-1h1.4v-1.1H44.8z M52.3,125.4c-0.4,0.8-0.8,1.4-1.3,2l-0.9-0.6c0.5-0.5,0.9-1.1,1.3-1.8
		L52.3,125.4z M50.8,121.5l-0.7-0.8c1.1-0.6,2.1-1.5,3-2.6l1.1,0.2c-0.1,0.2-0.2,0.3-0.4,0.5h3.2v0.8c-0.2,0.3-0.5,0.6-0.7,0.8h1.9
		v4.5h-6.8v-3.7C51.2,121.3,51,121.4,50.8,121.5z M55.7,119.8H53c-0.2,0.2-0.4,0.4-0.7,0.7H55C55.3,120.2,55.5,120,55.7,119.8z
		 M54.3,122.2v-0.8h-1.9v0.8H54.3z M54.3,123.1h-1.9v0.8h1.9V123.1z M54.4,127.1l-1,0.2c-0.1-0.7-0.2-1.4-0.4-2l1-0.2
		C54.1,125.8,54.3,126.4,54.4,127.1z M56.7,127.1l-1,0.2c-0.2-0.8-0.4-1.4-0.7-2l1-0.2C56.2,125.7,56.5,126.4,56.7,127.1z
		 M55.3,122.2h1.9v-0.8h-1.9V122.2z M57.3,123.1h-1.9v0.8h1.9V123.1z M59.3,126.8l-0.9,0.6c-0.3-0.6-0.7-1.2-1.2-1.9l0.8-0.5
		C58.6,125.7,59,126.3,59.3,126.8z M62.3,125.1c0.2,0.2,0.3,0.5,0.3,0.9c0,0.5-0.2,1-0.5,1.4c-0.3,0.4-0.7,0.7-1.2,0.8v-0.7
		c0.3-0.1,0.5-0.3,0.7-0.5c0.2-0.2,0.3-0.5,0.3-0.7c-0.1,0-0.1,0-0.2,0c-0.2,0-0.4-0.1-0.5-0.2s-0.2-0.3-0.2-0.6
		c0-0.2,0.1-0.4,0.2-0.6c0.1-0.1,0.3-0.2,0.6-0.2C61.9,124.8,62.1,124.9,62.3,125.1z"/>
</g>
<g id="XMLID_529_">
	<path id="XMLID_530_" class="st0" d="M5,144.2c-0.6,0-1.2-0.1-1.6-0.2c-0.4-0.1-0.7-0.3-1-0.7C2.2,143.1,2.1,143,2,143
		c-0.2,0-0.5,0.4-1,1.3l-0.8-0.7c0.5-0.8,0.9-1.3,1.3-1.5v-2.7H0.2v-1h2.3v3.8l0.1,0.1c0.2,0.3,0.5,0.5,0.7,0.6
		c0.3,0.1,0.7,0.2,1.3,0.2c0.6,0,1.2,0,2,0c0.5,0,1,0,1.5,0c0.5,0,0.9,0,1.2-0.1l-0.2,1H6.8C6.2,144.2,5.6,144.2,5,144.2z
		 M2.8,136.8l-0.7,0.7c-0.4-0.5-0.9-1-1.7-1.6l0.7-0.7C1.8,135.7,2.3,136.2,2.8,136.8z M5.7,136.1c-0.1-0.3-0.3-0.5-0.4-0.8l0.9-0.3
		c0.2,0.4,0.4,0.8,0.5,1.1h2.4v0.9h-6v-0.9H5.7z M8.5,140.1v2.6H3.6v-2.6H8.5z M8.4,137.5v0.8H3.8v-0.8H8.4z M8.4,138.8v0.8H3.8
		v-0.8H8.4z M7.5,140.9H4.7v0.9h2.9V140.9z M18.2,136.7v2.8h-3v0.3h3.3v0.7h-3.3v0.3H19v0.8h-1.3l0.6,0.4c-0.2,0.3-0.5,0.5-0.7,0.6
		l-0.2,0.1c0.6,0.2,1.2,0.4,1.9,0.6l-0.6,0.9c-1.8-0.5-3.1-1.3-4-2.4c-0.5,0.3-0.9,0.5-1.4,0.7l-0.1,0.1v0.6
		c0.7-0.1,1.3-0.3,1.9-0.5l0.2,0.9c-0.9,0.3-1.9,0.5-3.1,0.7l-0.2-0.8c0.2-0.1,0.4-0.2,0.4-0.4V143c-0.5,0.2-1,0.3-1.6,0.5l-0.5-0.9
		c0.9-0.1,1.7-0.4,2.5-0.6c0.2-0.1,0.5-0.2,0.7-0.3h-3v-0.8h3.8v-0.3h-3.4v-0.7h3.4v-0.3h-3v-2.8H18.2z M15.2,135.6h3.8v0.8h-8.7
		v-0.8h3.8c-0.1-0.1-0.2-0.3-0.2-0.4L15,135C15.1,135.2,15.1,135.4,15.2,135.6z M14.2,137.8v-0.3h-2v0.3H14.2z M14.2,138.5h-2v0.3h2
		V138.5z M15.2,137.8h2v-0.3h-2V137.8z M17.2,138.5h-2v0.3h2V138.5z M16.6,142.4c0.1-0.1,0.3-0.2,0.4-0.3c0.2-0.1,0.3-0.3,0.4-0.4
		h-1.7C15.9,141.9,16.2,142.2,16.6,142.4z M29.2,135.4v1h-3.9c-0.1,0.3-0.2,0.6-0.3,1h3.8v7h-1V144h-6v0.4h-1v-7h3.3
		c0.1-0.3,0.2-0.6,0.3-1h-4v-1H29.2z M22.7,143v-4.7h-1v4.7H22.7z M25.7,139.3v-1h-2v1H25.7z M25.7,141.1v-1h-2v1H25.7z M25.7,143
		v-1h-2v1H25.7z M27.7,143v-4.7h-1.1v4.7H27.7z M33.1,136c0.1-0.3,0.2-0.6,0.3-0.9l1.1,0.1c-0.1,0.3-0.2,0.5-0.2,0.8h4.9v1h-5.3
		c-0.4,0.8-0.8,1.6-1.4,2.3v5h-1v-3.8c-0.2,0.2-0.5,0.5-0.7,0.7l-0.6-0.8c1.1-1,2-2.1,2.6-3.4h-2.2v-1H33.1z M35.8,140.7v-0.8
		c0.5-0.3,1-0.6,1.5-1h-3.5v-1h4.8v1c-0.5,0.5-1.1,1-1.7,1.4v0.3h2.4v1h-2.4v1.5c0,0.7-0.4,1.1-1.1,1.1h-1.2l-0.3-1
		c0.3,0,0.7,0,1.1,0c0.3,0,0.4-0.2,0.4-0.5v-1.2h-2.8v-1H35.8z M40.7,141.4l-0.7-0.9c1.1-0.9,2-2,2.7-3.2h-2.3v-1h2.8
		c0.2-0.4,0.3-0.9,0.5-1.3l1.1,0.1c-0.1,0.4-0.3,0.8-0.4,1.2h4.8v1h-5.3c-0.4,0.8-0.8,1.5-1.3,2.1v4.9h-1v-3.7
		C41.2,140.9,41,141.1,40.7,141.4z M45.4,139.6v-1.7h1.1v1.7h2.3v1h-2.3v2.3h2.7v1h-6.3v-1h2.5v-2.3h-2.1v-1H45.4z M53.9,137.5v-0.6
		h1v0.6h1.9v0.7c0.4-0.3,0.8-0.7,1.2-1l0.7,0.6c-0.4,0.4-0.9,0.8-1.3,1.2H59v0.9h-2.9c-0.1,0.1-0.2,0.1-0.4,0.2
		c-0.2,0.1-0.5,0.2-0.7,0.4h3v4h-1V144h-4v0.4h-1v-2.9c-0.5,0.1-1,0.3-1.5,0.5l-0.4-0.9c1.4-0.3,2.7-0.7,4-1.3h-3.6v-0.9h3.5v-0.5
		h-2.6v-0.9H53.9z M52.5,135.7V135h1.1v0.6h2.3V135h1.1v0.6h2.2v0.9h-2.2v0.6h-1.1v-0.6h-2.3v0.6h-1.1v-0.6h-2.2v-0.9H52.5z
		 M57,141.2h-4v0.6h4V141.2z M53,143.2h4v-0.6h-4V143.2z M56.6,138.3h-1.7v0.5h0.9C56.1,138.7,56.4,138.5,56.6,138.3z M67.8,140.4
		v2.1h-1l-0.3,0.6h2.7v0.9h-8.9v-0.9h2.6l-0.3-0.6h-1v-2.1H67.8z M69,139.6h-1v-0.8h-6.6v0.8h-1V138H69V139.6z M64.2,135.6v-0.5h1
		v0.5h3.7v0.8h-3.7v0.4h3.1v0.8h-7.1v-0.8h3v-0.4h-3.6v-0.8H64.2z M67.6,139.2v0.8h-5.9v-0.8H67.6z M66.8,141.2h-4.2v0.6h4.2V141.2z
		 M65.4,143.2l0.3-0.6h-2l0.3,0.6H65.4z M70.8,144.4l-0.8-0.7c0.4-0.9,0.6-2,0.7-3.3v-5h3.2v7.9c0,0.7-0.3,1-1,1h-0.7l-0.2-0.9
		c0.2,0,0.5,0,0.7,0c0.2,0,0.3-0.2,0.3-0.5v-1.9h-1.3C71.5,142.4,71.3,143.5,70.8,144.4z M72.9,136.3h-1.3v1.5h1.3V136.3z
		 M71.7,140.1h1.3v-1.4h-1.3V140.1z M78.7,139.2v1c-0.2,0.9-0.6,1.6-1.2,2.3c0.5,0.4,1.1,0.7,1.8,1l-0.6,0.9c-0.8-0.4-1.5-0.8-2-1.2
		c-0.6,0.5-1.4,0.9-2.2,1.2l-0.6-0.9c0.8-0.3,1.5-0.6,2-1c-0.6-0.7-1-1.4-1.2-2.2h-0.4v-1H78.7z M78.3,135.4v2
		c0,0.2,0.1,0.3,0.3,0.3h0.6v1h-0.9c-0.7,0-1-0.4-1-1.1v-1.3h-1.3v0.4c0,1-0.4,1.8-1.1,2.3l-0.7-0.8c0.5-0.3,0.8-0.8,0.8-1.4v-1.5
		H78.3z M76.7,141.8c0.4-0.5,0.7-1,1-1.6h-1.9C76,140.8,76.3,141.3,76.7,141.8z M82.3,138.9l-0.7,0.7c-0.3-0.4-0.8-0.8-1.5-1.3
		l0.7-0.7C81.4,138,81.9,138.5,82.3,138.9z M82.5,141c-0.4,1.2-0.9,2.2-1.4,3.3l-1-0.4c0.5-1,1-2.1,1.4-3.2L82.5,141z M82.5,136.4
		l-0.7,0.7c-0.3-0.4-0.8-0.8-1.5-1.3l0.7-0.7C81.6,135.6,82.1,136,82.5,136.4z M83.7,137.3h4.9c0,0.9-0.1,1.6-0.1,2.3h0.8v1h-0.8
		c0,0.6-0.1,1-0.1,1.4h0.7v0.9h-0.8c0,0.2,0,0.4-0.1,0.5c-0.1,0.3-0.3,0.6-0.6,0.7c-0.3,0.1-0.7,0.2-1.2,0.2c-0.3,0-0.6,0-1,0
		l-0.3-0.9c0.4,0,0.8,0,1.1,0c0.2,0,0.4,0,0.6-0.1c0.2-0.1,0.3-0.2,0.4-0.4c0,0,0,0,0-0.1h-4.7c0.2-0.8,0.3-1.6,0.4-2.3h-0.9v-1h1
		c0.1-0.6,0.1-1.2,0.1-1.8c-0.1,0.2-0.3,0.3-0.4,0.5l-0.7-0.8c0.6-0.6,1.2-1.4,1.6-2.5l1,0.2l-0.2,0.6H89v1h-4.9
		C84,136.9,83.9,137.1,83.7,137.3z M83.8,142h2c-0.3-0.3-0.7-0.6-1.1-0.9l0.5-0.5h-1.2C84,141.1,83.9,141.6,83.8,142z M84.3,138.2
		c0,0.5-0.1,1-0.1,1.4H86c-0.3-0.3-0.6-0.5-1.1-0.8l0.6-0.6H84.3z M87.6,138.2h-2.1c0.5,0.3,0.9,0.6,1.2,0.9l-0.5,0.5h1.4
		C87.6,139.2,87.6,138.7,87.6,138.2z M87.5,142c0-0.4,0-0.9,0.1-1.4h-1.9c0.4,0.3,0.7,0.6,1,0.9l-0.6,0.6H87.5z M92.6,139l-0.7,0.7
		c-0.4-0.5-1-1-1.8-1.5l0.7-0.7C91.6,138,92.2,138.5,92.6,139z M92.9,140.7c-0.5,1.2-1,2.4-1.6,3.5l-1-0.5c0.6-1.1,1.2-2.3,1.7-3.5
		L92.9,140.7z M93,136.7l-0.7,0.7c-0.4-0.5-1.1-1-1.9-1.5l0.7-0.7C91.9,135.7,92.5,136.2,93,136.7z M99.1,141.3
		c-0.4,0.4-0.9,0.8-1.4,1c0.4,0.4,1,0.8,1.6,1.1l-0.6,0.9c-1.8-1-2.8-2.4-3.2-4.1h-1.3v2.9c0.6-0.1,1.2-0.3,1.8-0.5l0.2,0.9
		c-0.9,0.3-2,0.5-3.3,0.8l-0.2-0.9c0.3-0.1,0.5-0.2,0.5-0.5v-7h1.9c-0.1-0.2-0.2-0.4-0.4-0.6l1-0.2c0.1,0.2,0.3,0.5,0.4,0.8h2.3v4.4
		h-1.9c0.1,0.5,0.3,0.9,0.6,1.3c0.4-0.2,0.9-0.6,1.3-1L99.1,141.3z M97.5,136.8h-3.2v0.8h3.2V136.8z M94.3,139.3h3.2v-0.8h-3.2
		V139.3z M102.3,142.1c0.2,0.2,0.3,0.5,0.3,0.9c0,0.5-0.2,1-0.5,1.4c-0.3,0.4-0.7,0.7-1.2,0.8v-0.7c0.3-0.1,0.5-0.3,0.7-0.5
		c0.2-0.2,0.3-0.5,0.3-0.7c-0.1,0-0.1,0-0.2,0c-0.2,0-0.4-0.1-0.5-0.2s-0.2-0.3-0.2-0.6c0-0.2,0.1-0.4,0.2-0.6
		c0.1-0.1,0.3-0.2,0.6-0.2C101.9,141.8,102.1,141.9,102.3,142.1z"/>
</g>
<g id="XMLID_499_">
	<path id="XMLID_500_" class="st0" d="M3.6,160.2h-1v-0.4H1.4v0.6h-1v-7.6h3.2V160.2z M2.5,158.7v-4.9H1.4v4.9H2.5z M8.7,152.1v9.2
		h-1v-2.5c-1,0.3-2,0.6-3.1,0.8l-0.3-0.9c0.3-0.1,0.4-0.2,0.4-0.5v-5.4h1.1v5.5c0.6-0.2,1.3-0.3,1.9-0.6v-5.6H8.7z M12.9,152.6
		c-0.2,0.7-0.5,1.4-0.8,2v6.8h-1v-5.2c-0.2,0.3-0.5,0.6-0.7,0.9L10,156c0.9-1.1,1.5-2.4,1.9-3.9L12.9,152.6z M15.6,160.3h-2.1v0.6
		h-1v-4.2h1v-1.7h-1.2V154h1.2v-1.7h1v1.7h1.2v0.9h-1.2v1.7h1V160.3z M14.6,159.3v-1.8h-1.1v1.8H14.6z M16,156.7l-0.6-0.7
		c0.5-0.9,0.9-2.2,1.1-3.7l1,0.2c-0.1,0.4-0.1,0.8-0.2,1.1h2.1v1h-0.4c0,1.7-0.3,3.2-0.8,4.3c0.4,0.7,0.8,1.3,1.4,1.8l-0.7,0.7
		c-0.5-0.5-0.8-1-1.2-1.5c-0.4,0.6-0.9,1.1-1.5,1.6l-0.6-0.8c0.7-0.4,1.2-1,1.6-1.8c-0.3-0.8-0.6-1.7-0.7-2.6
		C16.2,156.4,16.1,156.5,16,156.7z M17.9,154.5h-1l0,0.1c0.1,1.1,0.2,2.1,0.6,3C17.8,156.7,17.9,155.7,17.9,154.5z M22.5,156.1
		l0,0.7h2.6c0,1.8,0,3-0.1,3.4c-0.1,0.7-0.7,1.1-1.7,1.1c-0.2,0-0.4,0-0.8-0.1l-0.2-0.9c0.3,0,0.6,0,0.9,0c0.5,0,0.8-0.2,0.9-0.6
		c0-0.2,0.1-0.8,0.1-2h-1.7c-0.1,0.7-0.2,1.3-0.3,1.7c-0.3,0.7-0.7,1.4-1.4,2l-0.7-0.8c0.5-0.4,0.9-1,1.1-1.6
		c0.2-0.6,0.3-1.6,0.4-2.9H22.5z M24.9,152.4v3.4h-4.2v-3.4H24.9z M23.8,153.4h-2.2v1.5h2.2V153.4z M26.9,153v6.1h-1V153H26.9z
		 M26.5,161.2l-0.2-1c0.5,0,0.9,0.1,1.3,0.1c0.3,0,0.4-0.2,0.4-0.5v-7.7h1v8c0,0.8-0.4,1.1-1.1,1.1H26.5z M35.1,154.4
		c0.6,2.6,2,4.6,4.3,6l-0.7,0.9c-1.9-1.3-3.2-2.9-4-5c-0.7,2-2,3.7-4.1,5.1l-0.6-0.9c2.7-1.6,4-3.8,4.1-6.7c0-0.7,0-1.2,0-1.6h1.1
		C35.2,153,35.2,153.7,35.1,154.4z M43.9,160.7h-1v-0.5h-1.5v0.8h-1v-7.3h1c0.2-0.5,0.3-1.1,0.4-1.6l1,0.1c-0.1,0.5-0.3,1-0.4,1.5
		h1.5V160.7z M42.9,156.4v-1.7h-1.5v1.7H42.9z M42.9,159.3v-1.9h-1.5v1.9H42.9z M48.9,160.2c-0.1,0.7-0.6,1-1.4,1
		c-0.2,0-0.6,0-1.1-0.1l-0.2-0.9c0.4,0,0.8,0,1.2,0c0.4,0,0.6-0.2,0.6-0.6c0.1-0.5,0.1-2.1,0.1-5h-2.4c-0.3,0.6-0.6,1.1-1,1.6
		l-0.6-0.8c0.7-0.9,1.1-2.1,1.3-3.5l1,0.1c-0.1,0.5-0.2,1-0.4,1.5h3C49,157.2,49,159.4,48.9,160.2z M47.2,158.3l-0.8,0.6
		c-0.4-0.7-0.9-1.4-1.5-2.2l0.8-0.5C46.3,156.9,46.8,157.7,47.2,158.3z M54,153.8l0.2-0.4c-0.9,0-1.9,0.1-3,0.1l-0.3-0.8
		c2.8,0,5.2-0.2,7.1-0.6l0.5,0.8c-1,0.2-2.1,0.3-3.3,0.4c-0.1,0.2-0.1,0.3-0.2,0.5h3.6v0.9h-4c-0.1,0.1-0.2,0.3-0.2,0.4h4.8v0.9
		h-5.4c-0.1,0.1-0.2,0.3-0.3,0.4h4.8v4.9h-1V161H53v0.4h-1v-3.5c-0.4,0.4-0.9,0.7-1.4,1.1l-0.6-0.9c0.9-0.6,1.7-1.3,2.4-2h-2.1v-0.9
		h2.9c0.1-0.1,0.2-0.3,0.3-0.4h-2.6v-0.9H54z M57.2,157.3H53v0.4h4.2V157.3z M53,158.9h4.2v-0.4H53V158.9z M53,160.1h4.2v-0.4H53
		V160.1z M62.4,156l-0.7,0.7c-0.3-0.5-0.8-1-1.5-1.5l0.7-0.7C61.4,155,61.9,155.5,62.4,156z M62.7,157.7c-0.4,1.2-0.9,2.4-1.4,3.5
		l-1-0.5c0.6-1.1,1.1-2.3,1.5-3.5L62.7,157.7z M62.7,153.7l-0.7,0.7c-0.4-0.5-0.9-1-1.6-1.5l0.7-0.7
		C61.7,152.7,62.3,153.2,62.7,153.7z M66.4,152.1v1.5h2.5v1h-2.5v1.5h2.7v1h-3.2c-0.5,1.3-1,2.2-1.4,2.8c1-0.1,2.1-0.3,3.1-0.5
		c-0.2-0.5-0.5-1-0.8-1.4l1-0.3c0.6,1,1.1,2.1,1.5,3.2l-1,0.4c-0.1-0.3-0.3-0.7-0.4-1c-1.5,0.3-3.1,0.5-4.8,0.7l-0.2-0.9
		c0.1,0,0.2-0.1,0.2-0.1c0.4-0.4,1-1.4,1.7-3h-2.2v-1h2.7v-1.5h-2.3v-1h2.3v-1.5H66.4z M72.3,159.1c0.2,0.2,0.3,0.5,0.3,0.9
		c0,0.5-0.2,1-0.5,1.4c-0.3,0.4-0.7,0.7-1.2,0.8v-0.7c0.3-0.1,0.5-0.3,0.7-0.5c0.2-0.2,0.3-0.5,0.3-0.7c-0.1,0-0.1,0-0.2,0
		c-0.2,0-0.4-0.1-0.5-0.2s-0.2-0.3-0.2-0.6c0-0.2,0.1-0.4,0.2-0.6c0.1-0.1,0.3-0.2,0.6-0.2C71.9,158.8,72.1,158.9,72.3,159.1z"/>
</g>
<g id="XMLID_415_">
	<path id="XMLID_416_" class="st0" d="M3.6,175l-0.8,0.2l-0.1-0.4c-0.8,0.3-1.6,0.4-2.3,0.5l-0.2-0.8c0.2-0.1,0.3-0.2,0.4-0.3
		c0.3-0.3,0.6-0.8,1-1.5c-0.4,0.1-0.8,0.1-1.2,0.2L0.1,172c0.2-0.1,0.3-0.2,0.4-0.3c0.4-0.8,0.7-1.7,1-2.6l0.9,0.4
		c-0.4,1-0.8,1.8-1.2,2.5c0.3,0,0.5-0.1,0.8-0.1c0.2-0.4,0.4-0.7,0.6-1.2l0.9,0.3c-0.8,1.5-1.5,2.6-2,3.3c0.3-0.1,0.7-0.1,1-0.2
		c-0.1-0.3-0.1-0.5-0.2-0.8L3,173C3.2,173.6,3.4,174.3,3.6,175z M1.2,175.8c0,0.9-0.1,1.7-0.2,2.4l-0.9-0.3c0.1-0.6,0.2-1.4,0.3-2.2
		L1.2,175.8z M2.5,177.6l-0.9,0.2c0-0.8-0.1-1.5-0.1-2.1l0.8-0.2C2.4,176.2,2.4,176.9,2.5,177.6z M3.6,176.6
		c0.1-0.4,0.2-0.8,0.3-1.3l0.9,0.2c-0.2,0.9-0.4,1.8-0.7,2.5l-0.8-0.5c0.1-0.2,0.2-0.4,0.2-0.6l-0.6,0.3c-0.1-0.6-0.2-1.2-0.4-1.6
		l0.7-0.2C3.4,175.7,3.5,176.2,3.6,176.6z M5.4,169.8c0.1-0.2,0.2-0.5,0.3-0.7l1,0.1c-0.1,0.2-0.1,0.4-0.2,0.6h2.4v4.7H6.6
		c0.4,0.6,0.7,1.1,0.9,1.5l-0.7,0.5c-0.2-0.5-0.5-1-0.9-1.6l0.6-0.4H3.9v-4.7H5.4z M8,170.6H4.8v3.1H8V170.6z M6.5,172.3
		c0.1-0.1,0.2-0.3,0.3-0.5H5.9c-0.2,0.2-0.4,0.4-0.6,0.6l-0.4-0.6c0.4-0.3,0.8-0.6,0.9-1.1l0.7,0.1l-0.1,0.3h1.3v0.6
		c-0.1,0.4-0.3,0.7-0.5,0.9c0.2,0.1,0.5,0.3,0.7,0.4l-0.5,0.5c-0.2-0.2-0.4-0.3-0.7-0.5c-0.4,0.3-0.8,0.4-1.4,0.5L5,172.9
		c0.3,0,0.6-0.1,0.9-0.2c-0.1-0.1-0.3-0.1-0.4-0.2L6,172C6.2,172.1,6.3,172.2,6.5,172.3z M5.8,178.2c-0.6,0-0.9-0.3-0.9-0.9v-2h0.9
		v1.8c0,0.1,0.1,0.2,0.2,0.2h0.8c0.1,0,0.2,0,0.3-0.1c0.1-0.1,0.1-0.3,0.1-0.7l0.9,0.3c-0.1,0.7-0.2,1.2-0.4,1.3
		c-0.2,0.1-0.4,0.2-0.7,0.2H5.8z M9.4,177.2l-0.8,0.4c-0.3-0.8-0.5-1.5-0.9-2.2l0.8-0.3C8.9,175.8,9.2,176.5,9.4,177.2z M12.2,170.2
		h1.1v0.9h-3.1v-0.9h1c-0.1-0.3-0.2-0.6-0.4-0.9l1-0.3C12,169.5,12.1,169.8,12.2,170.2z M18.8,170.8v1.6h-0.9v0.3H19v0.7h-1.2v0.3
		h0.9v0.7h-0.9v0.3h1.3v0.8h-1.8c0.1,0.2,0.3,0.5,0.4,0.7c0.2-0.2,0.4-0.4,0.6-0.6l0.6,0.5c-0.2,0.3-0.5,0.5-0.7,0.7
		c0.3,0.2,0.6,0.4,1,0.6l-0.5,0.8c-1.1-0.5-1.9-1.3-2.4-2.6h-0.4c-0.2,0.2-0.4,0.5-0.7,0.7v0.9c0.4-0.1,0.8-0.3,1.2-0.5l0.2,0.8
		c-0.8,0.3-1.5,0.6-2.3,0.8l-0.3-0.7c0.2-0.1,0.4-0.2,0.4-0.3v-0.5c-0.3,0.1-0.6,0.3-0.9,0.4l-0.4-0.7v1.6h-1v-0.4h-0.8v0.5h-1v-3.7
		h2.8v1.9c0.8-0.2,1.4-0.5,1.9-0.8h-1.6v-0.8h1.2v-0.3h-0.9v-0.7h0.9v-0.3h-1.1v-0.7h1.1v-0.3h-1v-1.6h2.3v1.6h-0.4v0.3h1.3v-0.3
		h-0.4v-1.6H18.8z M13,171.7v0.9h-2.5v-0.9H13z M13,173.2v0.9h-2.5v-0.9H13z M12.2,176.8v-1.3h-0.8v1.3H12.2z M15.8,169.7
		c-0.1-0.2-0.1-0.3-0.2-0.5l1-0.2c0.1,0.2,0.1,0.4,0.2,0.6h2.4v0.8h-5.6v-0.8H15.8z M15.3,171.4h-0.7v0.4h0.7V171.4z M16.9,173.5
		h-1.3v0.3h1.3V173.5z M16.9,174.9v-0.3h-1.3v0.3H16.9z M18,171.4h-0.7v0.4H18V171.4z M24.8,174.7c-0.5,0.2-1.1,0.3-1.7,0.5v2
		c0,0.7-0.3,1-1,1H21l-0.2-1c0.3,0,0.7,0.1,1,0.1c0.2,0,0.3-0.1,0.3-0.3v-1.5c-0.6,0.1-1.2,0.2-1.8,0.3l-0.1-1
		c0.7-0.1,1.3-0.2,1.9-0.3v-1.7h-1.9v-1h1.9v-0.9c-0.5,0.1-1,0.2-1.5,0.2l-0.2-1c1.4-0.1,2.6-0.4,3.7-0.9l0.4,1
		c-0.4,0.1-0.8,0.3-1.3,0.4v1.2h2c-0.1-0.8-0.1-1.6-0.1-2.5h1c0,1,0,1.8,0.1,2.5h3v1h-2.9c0.1,0.6,0.1,1.2,0.3,1.6
		c0,0.2,0.1,0.3,0.1,0.4c0.4-0.5,0.8-1.1,1.1-1.7l0.9,0.5c-0.4,0.9-1,1.7-1.6,2.3c0.1,0.2,0.2,0.4,0.3,0.6c0.3,0.4,0.5,0.7,0.6,0.7
		c0.1,0,0.2-0.5,0.3-1.5l0.9,0.5c-0.3,1.4-0.6,2.1-1.1,2.1c-0.4,0-0.9-0.3-1.4-0.9c-0.2-0.2-0.3-0.5-0.5-0.8c-0.7,0.6-1.4,1-2.3,1.3
		l-0.6-0.9c0.9-0.3,1.7-0.8,2.4-1.4c-0.1-0.3-0.2-0.6-0.3-1c-0.1-0.5-0.3-1.2-0.3-1.9h-2.1v1.5c0.6-0.1,1.1-0.3,1.7-0.5V174.7z
		 M29.1,170.5l-0.7,0.7c-0.4-0.4-1-0.9-1.7-1.4l0.7-0.7C28,169.6,28.6,170.1,29.1,170.5z M30.4,174.2l-0.4-1.1
		c0.8-1.1,1.4-2.5,1.8-4.1l0.9,0.4c-0.2,0.6-0.4,1.2-0.6,1.7v7.1h-1v-5.2C30.9,173.5,30.6,173.9,30.4,174.2z M35.7,173.5H34v4.8h-1
		v-8.9h2.7V173.5z M34.7,170.3H34v0.7h0.8V170.3z M34,172.7h0.8v-0.8H34V172.7z M36.2,173.5v-4.1H39v7.9c0,0.6-0.3,0.9-0.9,0.9
		c-0.4,0-0.8,0-1.2,0l-0.3-0.9c0.4,0,0.7,0,1.1,0c0.2,0,0.3-0.1,0.3-0.3v-3.4H36.2z M38.1,170.3h-0.8v0.7h0.8V170.3z M37.2,172.7
		h0.8v-0.8h-0.8V172.7z M43.6,175l-0.8,0.2l-0.1-0.4c-0.8,0.3-1.6,0.4-2.3,0.5l-0.2-0.8c0.2-0.1,0.3-0.2,0.4-0.3
		c0.3-0.3,0.6-0.8,1-1.5c-0.4,0.1-0.8,0.1-1.2,0.2l-0.2-0.8c0.2-0.1,0.3-0.2,0.4-0.3c0.4-0.8,0.7-1.7,1-2.6l0.9,0.4
		c-0.4,1-0.8,1.8-1.2,2.5c0.3,0,0.5-0.1,0.8-0.1c0.2-0.4,0.4-0.7,0.6-1.2l0.9,0.3c-0.8,1.5-1.5,2.6-2,3.3c0.3-0.1,0.7-0.1,1-0.2
		c-0.1-0.3-0.1-0.5-0.2-0.8L43,173C43.2,173.6,43.4,174.3,43.6,175z M41.2,175.8c0,0.9-0.1,1.7-0.2,2.4l-0.9-0.3
		c0.1-0.6,0.2-1.4,0.3-2.2L41.2,175.8z M42.5,177.6l-0.9,0.2c0-0.8-0.1-1.5-0.1-2.1l0.8-0.2C42.4,176.2,42.4,176.9,42.5,177.6z
		 M43.6,176.6c0.1-0.4,0.2-0.8,0.3-1.3l0.9,0.2c-0.2,0.9-0.4,1.8-0.7,2.5l-0.8-0.5c0.1-0.2,0.2-0.4,0.2-0.6l-0.6,0.3
		c-0.1-0.6-0.2-1.2-0.4-1.6l0.7-0.2C43.4,175.7,43.5,176.2,43.6,176.6z M45.4,169.8c0.1-0.2,0.2-0.5,0.3-0.7l1,0.1
		c-0.1,0.2-0.1,0.4-0.2,0.6h2.4v4.7h-2.3c0.4,0.6,0.7,1.1,0.9,1.5l-0.7,0.5c-0.2-0.5-0.5-1-0.9-1.6l0.6-0.4h-2.6v-4.7H45.4z
		 M48,170.6h-3.2v3.1H48V170.6z M46.5,172.3c0.1-0.1,0.2-0.3,0.3-0.5h-0.9c-0.2,0.2-0.4,0.4-0.6,0.6l-0.4-0.6
		c0.4-0.3,0.8-0.6,0.9-1.1l0.7,0.1l-0.1,0.3h1.3v0.6c-0.1,0.4-0.3,0.7-0.5,0.9c0.2,0.1,0.5,0.3,0.7,0.4l-0.5,0.5
		c-0.2-0.2-0.4-0.3-0.7-0.5c-0.4,0.3-0.8,0.4-1.4,0.5l-0.3-0.7c0.3,0,0.6-0.1,0.9-0.2c-0.1-0.1-0.3-0.1-0.4-0.2L46,172
		C46.2,172.1,46.3,172.2,46.5,172.3z M45.8,178.2c-0.6,0-0.9-0.3-0.9-0.9v-2h0.9v1.8c0,0.1,0.1,0.2,0.2,0.2h0.8c0.1,0,0.2,0,0.3-0.1
		c0.1-0.1,0.1-0.3,0.1-0.7l0.9,0.3c-0.1,0.7-0.2,1.2-0.4,1.3c-0.2,0.1-0.4,0.2-0.7,0.2H45.8z M49.4,177.2l-0.8,0.4
		c-0.3-0.8-0.5-1.5-0.9-2.2l0.8-0.3C48.9,175.8,49.2,176.5,49.4,177.2z M54.4,171.7h1.9v3.5h1.2l0-0.9h-0.9v-1h1l0-0.9h-1v-0.9h1
		l0-0.9h-1.2v-1h2.2l-0.2,5.7h0.7v1h-2.6c1,0.4,1.9,0.8,2.7,1.3l-0.6,0.9c-1-0.7-2-1.2-3-1.6l0.4-0.6h-2.9l0.7,0.6
		c-0.8,0.6-1.8,1.1-2.9,1.6l-0.7-0.9c1.1-0.4,2-0.8,2.7-1.3h-2.7v-1h0.7l-0.2-5.4c0.7-0.1,1.4-0.3,2.2-0.6l0.4,0.9
		c-0.3,0.1-0.9,0.3-1.6,0.5l0,0.8h1.3v0.9h-1.3l0,0.9H53v1h-1.1l0,1h1.5v-2.1h1v2.1h0.9v-2.5h-1.9v-3.4h1v0.7h1.8v0.9h-1.8V171.7z
		 M62.1,172.4c-0.3,1.8-0.6,3.4-1.1,4.7l-0.9-0.6c0.5-1.4,0.8-2.8,1-4.3L62.1,172.4z M63.8,178c-0.8,0-1.2-0.4-1.2-1.2v-5.6h1v5.4
		c0,0.3,0.2,0.4,0.5,0.4h1.7c0.2,0,0.3-0.1,0.4-0.3c0.1-0.2,0.2-0.9,0.2-1.9l1,0.3c-0.1,1.4-0.2,2.3-0.4,2.5
		c-0.2,0.3-0.5,0.4-0.9,0.4H63.8z M66.4,171.7l-0.9,0.6c-0.5-0.8-1.2-1.7-2-2.7l0.9-0.5C65.2,170.1,65.9,171,66.4,171.7z
		 M69.4,176.2l-1,0.4c-0.5-1.7-1-3.1-1.5-4.4l1-0.3C68.5,173.2,69,174.7,69.4,176.2z M75.2,169v1.7h3.5v4.9h-1v-0.5h-2.5v3.3h-1.1
		v-3.3h-2.5v0.5h-1v-4.9h3.5V169H75.2z M74.2,174.1v-2.3h-2.5v2.3H74.2z M77.7,174.1v-2.3h-2.5v2.3H77.7z M83.9,177.7h-1v-0.5h-1.5
		v0.8h-1v-7.3h1c0.2-0.5,0.3-1.1,0.4-1.6l1,0.1c-0.1,0.5-0.3,1-0.4,1.5h1.5V177.7z M82.9,173.4v-1.7h-1.5v1.7H82.9z M82.9,176.3
		v-1.9h-1.5v1.9H82.9z M88.9,177.2c-0.1,0.7-0.6,1-1.4,1c-0.2,0-0.6,0-1.1-0.1l-0.2-0.9c0.4,0,0.8,0,1.2,0c0.4,0,0.6-0.2,0.6-0.6
		c0.1-0.5,0.1-2.1,0.1-5h-2.4c-0.3,0.6-0.6,1.1-1,1.6l-0.6-0.8c0.7-0.9,1.1-2.1,1.3-3.5l1,0.1c-0.1,0.5-0.2,1-0.4,1.5h3
		C89,174.2,89,176.4,88.9,177.2z M87.2,175.3l-0.8,0.6c-0.4-0.7-0.9-1.4-1.5-2.2l0.8-0.5C86.3,173.9,86.8,174.7,87.2,175.3z
		 M92.3,172.9l-0.7,0.7c-0.3-0.4-0.8-0.8-1.5-1.3l0.7-0.7C91.4,172,91.9,172.5,92.3,172.9z M92.5,175c-0.4,1.2-0.9,2.2-1.4,3.3
		l-1-0.4c0.5-1,1-2.1,1.4-3.2L92.5,175z M92.5,170.4l-0.7,0.7c-0.3-0.4-0.8-0.8-1.5-1.3l0.7-0.7C91.6,169.6,92.1,170,92.5,170.4z
		 M93.7,171.3h4.9c0,0.9-0.1,1.6-0.1,2.3h0.8v1h-0.8c0,0.6-0.1,1-0.1,1.4h0.7v0.9h-0.8c0,0.2,0,0.4-0.1,0.5
		c-0.1,0.3-0.3,0.6-0.6,0.7c-0.3,0.1-0.7,0.2-1.2,0.2c-0.3,0-0.6,0-1,0l-0.3-0.9c0.4,0,0.8,0,1.1,0c0.2,0,0.4,0,0.6-0.1
		c0.2-0.1,0.3-0.2,0.4-0.4c0,0,0,0,0-0.1h-4.7c0.2-0.8,0.3-1.6,0.4-2.3h-0.9v-1h1c0.1-0.6,0.1-1.2,0.1-1.8c-0.1,0.2-0.3,0.3-0.4,0.5
		l-0.7-0.8c0.6-0.6,1.2-1.4,1.6-2.5l1,0.2l-0.2,0.6H99v1h-4.9C94,170.9,93.9,171.1,93.7,171.3z M93.8,176h2
		c-0.3-0.3-0.7-0.6-1.1-0.9l0.5-0.5h-1.2C94,175.1,93.9,175.6,93.8,176z M94.3,172.2c0,0.5-0.1,1-0.1,1.4H96
		c-0.3-0.3-0.6-0.5-1.1-0.8l0.6-0.6H94.3z M97.6,172.2h-2.1c0.5,0.3,0.9,0.6,1.2,0.9l-0.5,0.5h1.4C97.6,173.2,97.6,172.7,97.6,172.2
		z M97.5,176c0-0.4,0-0.9,0.1-1.4h-1.9c0.4,0.3,0.7,0.6,1,0.9l-0.6,0.6H97.5z M102.5,173.1l-0.7,0.7c-0.4-0.5-0.9-1-1.7-1.5l0.7-0.7
		C101.5,172.2,102,172.7,102.5,173.1z M102.6,174.8c-0.4,1.3-0.9,2.4-1.4,3.5l-1-0.4c0.6-1.1,1.1-2.3,1.5-3.5L102.6,174.8z
		 M102.7,170.7l-0.7,0.7c-0.4-0.5-1-1-1.7-1.5l0.7-0.7C101.7,169.7,102.3,170.2,102.7,170.7z M103.1,171.8v-1h1.5
		c-0.2-0.5-0.5-0.9-0.8-1.2l0.9-0.4c0.3,0.4,0.6,0.9,0.8,1.4l-0.5,0.3h1.5c0.3-0.5,0.5-1.1,0.7-1.7l1,0.4c-0.2,0.5-0.4,0.9-0.7,1.3
		h1.5v1h-2.4v1.1h2.1v1h-2.1v1.2h2.8v1h-2.8v2.3h-1.1v-2.3h-2.7v-1h2.7v-1.2h-2.1v-1h2.1v-1.1H103.1z M114.1,169.1v3.6h-1v-0.3
		c-0.7,0.2-1.6,0.3-2.8,0.5l-0.1-1c1.2-0.1,2.2-0.2,2.9-0.4v-0.7h-2.5v-1h2.5v-0.8H114.1z M112.6,178.3h-1v-5.3h6.4v4.3
		c0,0.6-0.3,1-1,1h-1.2l-0.2-0.9l1.1,0c0.2,0,0.3-0.1,0.3-0.3v-0.3h-4.3V178.3z M116.9,173.9h-4.3v0.6h4.3V173.9z M112.6,175.9h4.3
		v-0.6h-4.3V175.9z M118.8,170.2c-0.8,0.3-1.7,0.6-2.8,0.8v0.6c0,0.1,0.1,0.2,0.2,0.2h1.5c0.2,0,0.3,0,0.4-0.1
		c0.1-0.1,0.1-0.3,0.2-0.7l0.9,0.3c-0.1,0.7-0.2,1.1-0.4,1.2c-0.2,0.1-0.5,0.2-0.9,0.2h-2c-0.6,0-1-0.3-1-0.9v-2.7h1v1
		c0.8-0.2,1.5-0.4,2.2-0.7L118.8,170.2z M125,178.2c-0.6,0-1.2-0.1-1.6-0.2c-0.4-0.1-0.7-0.3-1-0.7c-0.1-0.2-0.3-0.2-0.4-0.2
		c-0.2,0-0.6,0.4-1.1,1.3l-0.8-0.7c0.5-0.8,1-1.3,1.4-1.5v-2.7h-1.4v-1h2.3v3.8l0.1,0.1c0.2,0.3,0.5,0.5,0.7,0.6
		c0.3,0.1,0.7,0.2,1.3,0.2c0.6,0,1.2,0,2,0c0.5,0,1,0,1.5,0c0.5,0,0.9,0,1.2-0.1l-0.2,1h-2.3C126.3,178.2,125.7,178.2,125,178.2z
		 M122.8,170.8l-0.7,0.7c-0.4-0.5-0.9-1-1.7-1.6l0.7-0.7C121.8,169.7,122.3,170.2,122.8,170.8z M124.4,170.1
		c-0.1-0.2-0.3-0.5-0.5-0.7l1-0.4c0.2,0.3,0.4,0.6,0.6,1h1.1c0.2-0.3,0.4-0.7,0.6-1l1,0.4c-0.1,0.2-0.3,0.5-0.4,0.7h1.4v1h-2.7
		l-0.2,0.5h2.2v5h-4.9v-5h1.5c0.1-0.2,0.1-0.4,0.2-0.5H123v-1H124.4z M127.5,173v-0.5h-3v0.5H127.5z M127.5,174.3v-0.5h-3v0.5H127.5
		z M127.5,175.1h-3v0.5h3V175.1z M139.2,169.6v1h-4c-0.1,0.4-0.2,0.7-0.4,1.1h3.9v5.3c0,0.8-0.3,1.2-1,1.2h-0.9l-0.3-1.1l0.8,0
		c0.2,0,0.3-0.1,0.3-0.4v-4.1h-1.3v5.2h-1v-5.2h-1.2v5.2h-1v-5.2h-1.2v5.5h-1.1v-6.5h2.8c0.2-0.4,0.3-0.7,0.4-1.1h-3.8v-1H139.2z
		 M141.1,175c-0.1,1-0.2,2-0.3,2.8l-0.6-0.2c0.1-0.7,0.3-1.6,0.4-2.7L141.1,175z M144.3,173.7c0,2.2-0.1,3.5-0.3,3.9
		c-0.2,0.4-0.5,0.6-1,0.6c-0.2,0-0.3,0-0.5,0l-0.2-0.8c0.2,0,0.4,0,0.6,0c0.3,0,0.5-0.2,0.5-0.5c0-0.1,0-0.2,0-0.4l-0.4,0.1
		c-0.1-0.6-0.2-1.1-0.3-1.7l0.5-0.1c0.1,0.3,0.2,0.7,0.2,1c0-0.3,0-0.7,0-1.2h-2.9v-5.2h3.6v0.9H143v0.6h1v0.8h-1v0.6h1v0.8h-1v0.6
		H144.3z M141.9,177.4l-0.6,0.1c0-1.1,0-1.9-0.1-2.5l0.6-0.1C141.8,175.5,141.9,176.4,141.9,177.4z M141.4,170.3v0.6h0.7v-0.6H141.4
		z M141.4,172.3h0.7v-0.6h-0.7V172.3z M141.4,173.7h0.7v-0.6h-0.7V173.7z M142.7,176.9l-0.6,0.1c0-0.9-0.1-1.5-0.2-2l0.5-0.1
		C142.6,175.4,142.6,176,142.7,176.9z M147.2,169.1v2.1l1.7-0.5c0,2.2,0,3.5-0.1,4c-0.1,0.5-0.4,0.7-1.1,0.7h0l-0.3-0.9
		c0.2,0,0.3,0,0.5,0c0.1,0,0.1-0.1,0.1-0.3c0-0.2,0-1,0-2.3l-0.8,0.2v4h-1v-3.7l-0.7,0.2v4.1c0,0.3,0.1,0.4,0.4,0.4h1.9
		c0.1,0,0.2-0.1,0.3-0.2c0.1-0.1,0.1-0.6,0.1-1.3l0.9,0.3c-0.1,1.1-0.2,1.7-0.4,1.9c-0.2,0.2-0.4,0.3-0.8,0.3h-2.4
		c-0.7,0-1.1-0.4-1.1-1.1v-4l-0.4,0.1v-0.9l0.4-0.1v-2h1v1.7l0.7-0.2v-2.4H147.2z"/>
</g>
<g id="XMLID_366_">
	<path id="XMLID_413_" class="st0" d="M5.4,186v2.2l3-0.7c0,2.2-0.1,3.6-0.2,4.1c-0.1,0.5-0.6,0.8-1.4,0.8H6.4l-0.3-1
		c0.3,0,0.6,0,0.9,0c0.2,0,0.3-0.2,0.3-0.5c0-0.2,0.1-0.9,0.1-2.2l-2,0.4v3.6h-1v-3.4l-1.8,0.4v3.4c0,0.4,0.2,0.7,0.7,0.7h4.2
		c0.3,0,0.6-0.1,0.7-0.2c0.1-0.1,0.2-0.6,0.3-1.4l1,0.3c-0.1,1.1-0.2,1.7-0.5,1.9c-0.2,0.2-0.7,0.3-1.3,0.3H3c-1,0-1.4-0.5-1.4-1.5
		v-3.4l-1.5,0.3v-1l1.5-0.3v-2.3h1v2.1l1.8-0.4V186H5.4z"/>
	<path id="XMLID_406_" class="st0" d="M11.6,187.2c-0.1-0.3-0.3-0.6-0.4-0.9l1-0.3c0.2,0.4,0.3,0.8,0.4,1.2h1.3v1h-3.7v-1H11.6z
		 M11.4,195.4h-1v-3.7h3.1v3.6h-1v-0.4h-1.1V195.4z M13.5,188.7v0.9h-3v-0.9H13.5z M13.5,190.1v0.9h-3v-0.9H13.5z M12.5,192.6h-1.1
		v1.3h1.1V192.6z M14.2,190.3l-0.6-0.8c0.7-0.9,1.1-2.1,1.4-3.4l1,0.1c-0.1,0.4-0.2,0.8-0.3,1.2H19v1h-1.7v2.3h2v1h-2v3.6h-1v-3.6
		h-2.4v-1h2.4v-2.3h-0.9C15.1,189.1,14.7,189.7,14.2,190.3z"/>
	<path id="XMLID_399_" class="st0" d="M22.3,186.2c-0.1,0.6-0.2,1.2-0.2,1.7h1.5v0.6c-0.1,1.6-0.3,3-0.8,4.2c0.4,0.4,0.6,0.7,0.9,1
		l-0.7,0.8c-0.2-0.3-0.4-0.5-0.7-0.8c-0.4,0.7-0.9,1.2-1.4,1.7l-0.7-0.8c0.6-0.5,1-1,1.4-1.7c-0.4-0.4-0.8-0.8-1.2-1.3
		c0.2-0.8,0.4-1.7,0.6-2.7h-0.7v-1h0.9c0.1-0.6,0.2-1.2,0.2-1.8L22.3,186.2z M22.6,188.9h-0.7c-0.2,1-0.4,1.8-0.5,2.4l0.6,0.6
		C22.3,191,22.5,190,22.6,188.9z M25.6,190.6c-0.3,1.3-0.6,2.5-1.1,3.5l-0.9-0.6c0.5-1,0.8-2,1-3.1L25.6,190.6z M24.3,190.1
		l-0.6-0.8c0.7-0.9,1.1-2,1.3-3.3l1.1,0.1c-0.1,0.4-0.2,0.8-0.3,1.2H29v0.7c-0.1,0.7-0.2,1.3-0.4,2l-1-0.3c0.1-0.4,0.2-0.8,0.3-1.3
		h-2.6C25,189,24.7,189.6,24.3,190.1z M25.1,195.3l-0.2-1c0.3,0,0.5,0.1,0.8,0.1c0.2,0,0.3-0.1,0.3-0.3v-4.9h1v5.2c0,0.7-0.3,1-1,1
		H25.1z M29.3,193.7l-0.9,0.4c-0.3-1.3-0.6-2.5-1-3.5l0.9-0.3C28.7,191.4,29,192.5,29.3,193.7z"/>
	<path id="XMLID_393_" class="st0" d="M33.7,186.4v3.4h-0.9v1.3h0.9v1h-0.9v1.4c0.4-0.1,0.7-0.2,1-0.3v1c-1,0.3-2.2,0.7-3.5,1
		l-0.3-1l0.4-0.1v-3.4h0.9v3.2c0.2,0,0.3-0.1,0.5-0.1v-4h-1.4v-3.4H33.7z M32.7,187.4h-1.3v1.5h1.3V187.4z M39.2,191.8
		c-0.4,0.5-0.8,0.9-1.3,1.2c0.4,0.5,0.9,1,1.5,1.3l-0.6,0.9c-1.5-1.1-2.5-2.5-2.8-4.3h-0.8v3c0.5-0.2,1-0.3,1.4-0.6l0.3,1
		c-0.7,0.3-1.7,0.6-2.8,0.9l-0.2-0.9c0.2-0.1,0.3-0.2,0.3-0.4v-7.5h4.4v4.5H37c0.1,0.5,0.2,0.9,0.5,1.3c0.4-0.3,0.8-0.6,1.1-1.1
		L39.2,191.8z M37.6,187.4h-2.3v0.9h2.3V187.4z M35.3,190h2.3v-0.9h-2.3V190z"/>
	<path id="XMLID_390_" class="st0" d="M44.8,191.7c-0.5,0.2-1.1,0.3-1.7,0.5v2c0,0.7-0.4,1-1,1H41l-0.2-1c0.3,0,0.7,0.1,1,0.1
		c0.2,0,0.3-0.1,0.3-0.3v-1.5c-0.6,0.1-1.2,0.2-1.8,0.3l-0.1-1c0.7-0.1,1.3-0.2,1.9-0.3v-1.7h-1.9v-1h1.9v-0.9
		c-0.5,0.1-1,0.2-1.5,0.2l-0.2-1c1.4-0.1,2.6-0.4,3.7-0.9l0.4,1c-0.4,0.1-0.8,0.3-1.3,0.4v1.2h2c-0.1-0.8-0.1-1.6-0.1-2.5h1
		c0,1,0,1.8,0.1,2.5h3v1h-2.9c0.1,0.6,0.1,1.2,0.3,1.6c0,0.2,0.1,0.3,0.1,0.4c0.4-0.5,0.8-1.1,1.1-1.7l0.9,0.5
		c-0.4,0.9-1,1.7-1.6,2.3c0.1,0.2,0.2,0.5,0.3,0.6c0.3,0.4,0.5,0.7,0.6,0.7c0.1,0,0.2-0.5,0.3-1.5l0.9,0.5c-0.3,1.4-0.6,2.1-1.1,2.1
		c-0.4,0-0.9-0.3-1.4-0.9c-0.2-0.2-0.4-0.5-0.5-0.8c-0.7,0.6-1.4,1-2.3,1.3l-0.6-0.9c0.9-0.3,1.7-0.8,2.4-1.4
		c-0.1-0.3-0.2-0.6-0.3-1c-0.1-0.5-0.3-1.2-0.3-1.9h-2.1v1.5c0.6-0.1,1.1-0.3,1.7-0.5V191.7z M49.1,187.5l-0.7,0.7
		c-0.4-0.4-1-0.9-1.7-1.4l0.7-0.7C48,186.6,48.6,187.1,49.1,187.5z"/>
	<path id="XMLID_382_" class="st0" d="M50.4,191.2l-0.4-1.1c0.8-1.1,1.4-2.5,1.8-4.1l0.9,0.4c-0.2,0.6-0.4,1.2-0.6,1.7v7.1h-1v-5.2
		C50.9,190.5,50.6,190.9,50.4,191.2z M55.7,190.5H54v4.8h-1v-8.9h2.7V190.5z M54.7,187.3H54v0.8h0.8V187.3z M54,189.7h0.8v-0.8H54
		V189.7z M56.2,190.5v-4.1H59v7.9c0,0.6-0.3,0.9-0.9,0.9c-0.4,0-0.8,0-1.2,0l-0.3-0.9c0.4,0,0.7,0,1.1,0c0.2,0,0.3-0.1,0.3-0.3v-3.4
		H56.2z M58.1,187.3h-0.8v0.7h0.8V187.3z M57.2,189.7h0.8v-0.8h-0.8V189.7z"/>
	<path id="XMLID_375_" class="st0" d="M67.8,191.4v2.1h-1l-0.3,0.6h2.7v0.9h-8.9v-0.9h2.6l-0.3-0.6h-1v-2.1H67.8z M69,190.6h-1v-0.8
		h-6.6v0.8h-1V189H69V190.6z M64.2,186.6v-0.5h1v0.5h3.7v0.8h-3.7v0.4h3.1v0.8h-7.1v-0.8h3v-0.4h-3.6v-0.8H64.2z M67.6,190.2v0.8
		h-5.9v-0.8H67.6z M66.8,192.2h-4.2v0.6h4.2V192.2z M65.4,194.2l0.3-0.6h-2l0.3,0.6H65.4z"/>
	<path id="XMLID_369_" class="st0" d="M72.3,195.3h-1V191c-0.2,0.7-0.5,1.4-0.8,2l-0.5-0.9c0.5-0.9,0.9-2,1.2-3.2h-0.9v-1h1v-1.9h1
		v1.9h0.8v1h-0.8v0.5c0.3,0.4,0.7,0.9,1,1.4l-0.6,0.8c-0.2-0.4-0.3-0.7-0.5-0.9V195.3z M75.5,192.3v0.7c-0.3,1-1.1,1.8-2.1,2.3
		l-0.6-0.8c0.8-0.3,1.4-0.8,1.7-1.4h-1.3v-0.8H75.5z M74.6,187c-0.1-0.3-0.2-0.5-0.3-0.7l1-0.2c0.1,0.3,0.2,0.6,0.3,0.9h1.2
		c0.1-0.3,0.2-0.6,0.3-0.9l1,0.1c-0.1,0.3-0.2,0.5-0.3,0.8H79v0.8h-2.3v0.4h2v0.7h-2v0.4h2.5v0.8h-6v-0.8h2.5v-0.4h-2v-0.7h2v-0.4
		h-2.3V187H74.6z M74.8,194.4l0.7,0c0.1,0,0.2-0.1,0.2-0.3V192h-1.9v-0.8h2.9v0.9c0.1,0.1,0.1,0.2,0.2,0.3c0.5-0.2,1-0.6,1.5-1.1
		l0.6,0.6c-0.5,0.5-1,0.9-1.6,1.1c0.5,0.5,1.1,1,1.9,1.3l-0.7,0.8c-0.8-0.5-1.5-1.1-2-1.8v1.1c0,0.6-0.3,0.8-1,0.8h-0.7L74.8,194.4z
		 M77.8,190.7l-0.3,0.7c-0.8-0.2-1.7-0.4-2.6-0.5l0.3-0.6C76.1,190.3,77,190.5,77.8,190.7z"/>
	<path id="XMLID_367_" class="st0" d="M82.3,193.1c0.2,0.2,0.3,0.5,0.3,0.9c0,0.5-0.2,1-0.5,1.4c-0.3,0.4-0.7,0.7-1.2,0.8v-0.7
		c0.3-0.1,0.5-0.3,0.7-0.5c0.2-0.2,0.3-0.5,0.3-0.7c-0.1,0-0.1,0-0.2,0c-0.2,0-0.4-0.1-0.5-0.2c-0.1-0.1-0.2-0.3-0.2-0.6
		c0-0.2,0.1-0.4,0.2-0.6c0.1-0.2,0.3-0.2,0.6-0.2C81.9,192.8,82.1,192.9,82.3,193.1z"/>
</g>
<g id="XMLID_328_">
	<path id="XMLID_329_" class="st0" d="M9,203.5v1H5.8c-0.2,0.4-0.4,0.7-0.6,1.1v6.7H4.2v-5.3c-0.9,1-2,1.9-3.4,2.8l-0.7-0.9
		c2.2-1.2,3.7-2.7,4.6-4.4H0.4v-1H9z M9.3,208.9l-0.8,0.8c-0.6-0.8-1.6-1.7-2.7-2.7l0.7-0.7C7.6,207.1,8.6,208,9.3,208.9z M12.6,205
		c0.1-0.2,0.1-0.5,0.2-0.7h-1.4v3.8c0,1.7-0.3,3.1-0.7,4.2l-0.7-0.6c0.3-0.8,0.5-2,0.5-3.5v-4.7h4.4v0.9h-1.1c0,0.2-0.1,0.5-0.2,0.7
		h1.1v3.9h-1v2.5c0,0.5-0.3,0.8-0.8,0.8h-0.5l-0.2-0.9c0.1,0,0.3,0,0.4,0c0.1,0,0.2-0.1,0.2-0.2v-2.3h-1V205H12.6z M12.5,209.5
		c-0.2,0.9-0.4,1.6-0.7,2.2l-0.7-0.4c0.3-0.6,0.5-1.3,0.6-2L12.5,209.5z M13.8,206.5v-0.7h-1.2v0.7H13.8z M13.8,207.4h-1.2v0.7h1.2
		V207.4z M15.1,211.3l-0.8,0.2c-0.1-0.7-0.2-1.4-0.4-2l0.8-0.3C14.8,209.8,15,210.5,15.1,211.3z M16.4,204.9
		c0.1-0.2,0.1-0.4,0.1-0.6h-1.4v-0.9h4v0.9h-1.6c0,0.2-0.1,0.4-0.1,0.6H19v5.7h-0.8c0.5,0.4,0.9,0.7,1.2,1.1l-0.7,0.7
		c-0.3-0.4-0.7-0.9-1.3-1.3l0.5-0.4h-1.4l0.5,0.4c-0.4,0.5-0.9,1-1.5,1.4l-0.5-0.7c0.5-0.3,0.9-0.7,1.2-1.1h-0.9v-5.7H16.4z
		 M18,206.5v-0.7h-1.7v0.7H18z M18,208.1v-0.8h-1.7v0.8H18z M18,208.9h-1.7v0.8H18V208.9z M23.2,203.4v0.3l0.4-0.4
		c0.5,0.4,0.9,0.9,1.2,1.3l-0.7,0.6c-0.2-0.4-0.5-0.8-0.9-1.2v0c-0.2,0.9-0.5,1.8-0.8,2.7c0.4,0.9,0.7,1.7,0.7,2.4
		c0,0.5-0.1,0.8-0.2,1c-0.2,0.2-0.7,0.4-1.3,0.4l-0.2-0.6v2.3h-1v-8.9H23.2z M21.8,209.8c0.1,0,0.2-0.1,0.3-0.1
		c0-0.1,0.1-0.2,0.1-0.3c0-0.7-0.2-1.4-0.7-2.2c0.3-1,0.6-1.9,0.8-2.7h-0.8v5.4C21.5,209.7,21.7,209.8,21.8,209.8z M29.4,211.2
		l-0.2,0.9h-1.9c-0.3,0-0.6,0-0.8,0c-0.4,0-0.8-0.1-1.1-0.2c-0.3-0.1-0.6-0.3-0.8-0.6c-0.1-0.1-0.2-0.2-0.3-0.2
		c-0.1,0-0.5,0.4-0.9,1.1l-0.6-0.8c0.4-0.6,0.8-1,1.1-1.2v-3.1H23v-0.9h1.7v4.2c0.2,0.2,0.4,0.4,0.6,0.5c0.3,0.1,0.6,0.2,0.9,0.2
		c0.3,0,0.7,0,1,0C28,211.2,28.7,211.2,29.4,211.2z M29.2,206v0.7h-3.8v-0.6c-0.1,0.1-0.2,0.2-0.3,0.2l-0.5-0.7
		c0.5-0.3,0.9-0.7,1.3-1.2h-0.9v-0.8h1.4c0.1-0.2,0.2-0.4,0.2-0.6l0.9,0.2c0,0.1-0.1,0.3-0.2,0.4h2v0.8h-2.4l-0.2,0.3h2.4v0.7h-1.2
		v0.4H29.2z M26.2,210.9h-0.8v-3.8h3.6v3c0,0.5-0.3,0.8-1,0.8h-0.6l-0.2-0.7l0.5,0c0.2,0,0.3-0.1,0.3-0.3v-0.1h-1.9V210.9z
		 M25.5,206h1.4v-0.4H26C25.8,205.7,25.6,205.9,25.5,206z M28.1,207.8h-1.9v0.4h1.9V207.8z M26.2,209.2h1.9v-0.4h-1.9V209.2z
		 M32.5,207l-0.7,0.7c-0.4-0.5-1-0.9-1.7-1.5l0.7-0.7C31.5,206.1,32,206.6,32.5,207z M32.5,208.6c-0.4,1.3-0.8,2.5-1.3,3.6l-1-0.4
		c0.5-1.1,1-2.3,1.4-3.5L32.5,208.6z M32.8,204.6l-0.7,0.7c-0.4-0.4-1-0.9-1.7-1.4l0.7-0.7C31.7,203.7,32.3,204.1,32.8,204.6z
		 M36.7,203.1v1.1h2.4v0.5c-0.1,0.6-0.3,1.2-0.6,1.7l-1-0.3c0.2-0.3,0.3-0.6,0.4-1h-1.3v1.7h1.8v0.9c-0.2,0.9-0.6,1.8-1.2,2.5
		c0.6,0.4,1.3,0.8,2.2,1.2l-0.6,0.9c-0.9-0.4-1.7-0.9-2.3-1.4c-0.7,0.6-1.5,1.1-2.4,1.5l-0.7-0.8c1-0.3,1.7-0.8,2.4-1.3
		c-0.7-0.7-1.1-1.5-1.3-2.4h-0.4c-0.1,1.7-0.5,3.2-1.4,4.5l-0.8-0.7c0.8-1.1,1.2-2.6,1.2-4.3v-3.2h2.5v-1.1H36.7z M34.1,205.2v1.7
		h1.5v-1.7H34.1z M37.4,207.9h-2c0.2,0.6,0.5,1.2,1,1.7C36.9,209.1,37.2,208.5,37.4,207.9z M45,212.2c-0.6,0-1.2-0.1-1.6-0.2
		c-0.4-0.1-0.7-0.3-1-0.7c-0.1-0.2-0.3-0.2-0.4-0.2c-0.2,0-0.5,0.4-1,1.3l-0.8-0.7c0.5-0.8,0.9-1.3,1.3-1.5v-2.7h-1.3v-1h2.3v3.8
		l0.1,0.1c0.2,0.3,0.5,0.5,0.7,0.6c0.3,0.1,0.7,0.2,1.3,0.2c0.6,0,1.2,0,2,0c0.5,0,1,0,1.5,0c0.5,0,0.9,0,1.2-0.1l-0.2,1h-2.3
		C46.2,212.2,45.6,212.2,45,212.2z M42.8,204.8l-0.7,0.7c-0.4-0.5-0.9-1-1.7-1.6l0.7-0.7C41.8,203.7,42.3,204.2,42.8,204.8z
		 M45.9,206.9c-0.6,0.5-1.5,1-2.5,1.3l-0.5-0.8c1.1-0.3,1.9-0.8,2.6-1.3c-0.1-0.2-0.2-0.3-0.4-0.5c-0.5,0.3-1.2,0.6-1.8,0.8
		l-0.5-0.8c1.3-0.3,2.2-0.8,2.9-1.3h-2.5v-1h6v1h-2.3c-0.2,0.3-0.5,0.5-0.8,0.7c0.3,0.4,0.5,0.7,0.7,1.1c0.6-0.4,1.2-0.8,1.6-1.3
		l0.7,0.7c-0.6,0.6-1.2,1.1-2,1.5c0,0,0,0,0,0c0.8,0.6,1.6,1.2,2.4,1.9l-0.6,0.8c-0.7-0.7-1.2-1.2-1.7-1.6l0,0.6
		c0,0.9-0.1,1.5-0.4,1.7c-0.3,0.2-0.8,0.3-1.5,0.3h-0.4l-0.3-0.9h0.9c0.2,0,0.4,0,0.5-0.1c0.1-0.1,0.2-0.4,0.2-0.9
		c0-0.1,0-0.2,0-0.3c-0.8,0.7-1.7,1.2-2.7,1.6l-0.6-0.8c1.2-0.4,2.3-1,3.1-1.7C46,207.3,45.9,207.1,45.9,206.9z M52.5,207l-0.7,0.7
		c-0.4-0.4-0.9-0.9-1.6-1.5l0.7-0.7C51.5,206,52,206.5,52.5,207z M52.5,208.6c-0.4,1.3-0.8,2.5-1.3,3.6l-1-0.4
		c0.5-1.1,0.9-2.3,1.3-3.5L52.5,208.6z M52.7,204.4l-0.7,0.7c-0.4-0.4-0.9-0.8-1.5-1.3l0.7-0.7C51.7,203.6,52.3,204,52.7,204.4z
		 M54.4,207.7c0,1.3-0.2,2.3-0.4,2.9c-0.2,0.6-0.6,1.2-1.2,1.7l-0.7-0.8c0.4-0.4,0.8-0.8,0.9-1.3c0.2-0.5,0.3-1.3,0.3-2.4H54.4z
		 M52.9,206.6c0.1,0,0.2-0.1,0.2-0.1c0.3-0.2,0.7-0.7,1.3-1.5h-1.5V204h2.6c-0.1-0.3-0.2-0.6-0.4-0.8l1.1-0.2c0.1,0.3,0.2,0.6,0.4,1
		H59v0.9h-3.6c-0.4,0.7-0.7,1.2-1,1.5c0.9-0.1,1.9-0.1,2.8-0.3c-0.2-0.2-0.4-0.5-0.5-0.7l0.8-0.5c0.7,0.8,1.2,1.5,1.6,2.2l-0.9,0.6
		c-0.1-0.2-0.3-0.5-0.4-0.7c-1.5,0.2-3,0.3-4.7,0.4L52.9,206.6z M56.1,207.7v4.4H55v-4.4H56.1z M57.9,212.2c-0.7,0-1.1-0.3-1.1-0.9
		v-3.6h1v3.4c0,0.1,0,0.2,0.1,0.2h0.3c0.1,0,0.2-0.2,0.2-0.4c0-0.3,0-0.6,0-1.1l0.9,0.3c0,1-0.1,1.6-0.2,1.8
		c-0.1,0.2-0.4,0.3-0.9,0.4H57.9z M62.3,210.1c0.2,0.2,0.3,0.5,0.3,0.9c0,0.5-0.2,1-0.5,1.4c-0.3,0.4-0.7,0.7-1.2,0.8v-0.7
		c0.3-0.1,0.5-0.3,0.7-0.5c0.2-0.2,0.3-0.5,0.3-0.7c-0.1,0-0.1,0-0.2,0c-0.2,0-0.4-0.1-0.5-0.2s-0.2-0.3-0.2-0.6
		c0-0.2,0.1-0.4,0.2-0.6c0.1-0.1,0.3-0.2,0.6-0.2C61.9,209.8,62.1,209.9,62.3,210.1z"/>
</g>
<g id="XMLID_281_">
	<path id="XMLID_282_" class="st0" d="M2.8,225.7h-1v-2.3c-0.4,0.6-0.8,1.3-1.3,1.8l-0.4-1c0.7-0.6,1.3-1.3,1.7-2.1H0.2v-1h1.5v-1h1
		v1H4v1H2.8v0.3c0.5,0.3,1,0.7,1.5,1l-0.6,0.9c-0.3-0.4-0.6-0.7-0.9-1V225.7z M2,226.4c-0.2,1-0.6,1.8-1,2.5l-0.9-0.6
		c0.4-0.7,0.7-1.4,0.9-2.2L2,226.4z M3.6,229.1c-0.8,0-1.1-0.4-1.1-1.1v-1.9h1.1v1.7c0,0.2,0.1,0.4,0.4,0.4H6c0.1,0,0.2,0,0.3-0.1
		s0.1-0.4,0.2-0.9l1,0.3c-0.1,0.9-0.2,1.4-0.4,1.5c-0.2,0.1-0.5,0.2-0.9,0.2H3.6z M5.8,227.1L5,227.7c-0.3-0.4-0.6-0.8-1-1.3
		l0.8-0.5C5.3,226.3,5.6,226.7,5.8,227.1z M8.7,220.4v5.2H4.5v-5.2H8.7z M7.6,221.9v-0.6H5.5v0.6H7.6z M7.6,223.3v-0.6H5.5v0.6H7.6z
		 M7.6,224.1H5.5v0.6h2.1V224.1z M9.4,228l-0.9,0.6c-0.4-0.7-0.8-1.4-1.5-2.3l0.8-0.5C8.6,226.7,9.1,227.4,9.4,228z M15,229.2
		c-0.7,0-1.2-0.1-1.6-0.2c-0.4-0.1-0.8-0.3-1.1-0.7c-0.1-0.2-0.3-0.2-0.4-0.2c-0.2,0-0.5,0.4-1,1.3l-0.8-0.7
		c0.5-0.8,0.9-1.3,1.3-1.5v-2.7h-1.3v-1h2.2v3.8c0,0,0.1,0.1,0.1,0.1c0.2,0.3,0.5,0.5,0.7,0.6c0.3,0.1,0.7,0.2,1.3,0.2
		c0.6,0,1.3,0,2.1,0c0.5,0,1,0,1.5,0c0.5,0,0.9,0,1.2-0.1l-0.3,1h-2.3C16.2,229.2,15.6,229.2,15,229.2z M12.7,221.8l-0.7,0.7
		c-0.4-0.5-0.9-1-1.7-1.6l0.7-0.7C11.7,220.7,12.3,221.2,12.7,221.8z M14.7,223.4V223l-0.7,0.3c-0.3-0.7-0.6-1.3-1-1.8l0.8-0.4
		c0.3,0.5,0.6,1.1,0.8,1.7v-2.6h1v3.2c0,2.1-0.6,3.6-1.7,4.6l-0.8-0.7c0.7-0.6,1.2-1.4,1.4-2.4c-0.3,0.3-0.7,0.6-1.1,0.8l-0.5-0.9
		c0.6-0.3,1.2-0.6,1.7-1C14.7,223.6,14.7,223.5,14.7,223.4z M17.1,227.7c-0.6,0-0.9-0.3-0.9-1v-6.6h1v2.4c0.3-0.5,0.6-1,0.8-1.6
		l0.9,0.4c-0.3,0.7-0.7,1.3-1.1,1.9l-0.6-0.5v0.7c0.6,0.3,1.2,0.7,1.8,1.1l-0.5,0.8c-0.4-0.4-0.8-0.7-1.2-0.9v2.1
		c0,0.1,0.1,0.2,0.2,0.2h0.5c0.1,0,0.2,0,0.2-0.1s0.1-0.4,0.1-1l0.9,0.3c-0.1,0.9-0.2,1.4-0.4,1.6s-0.4,0.2-0.7,0.2H17.1z M22,220.8
		c-0.1-0.2-0.1-0.4-0.2-0.6l1-0.2c0.1,0.2,0.1,0.5,0.2,0.7h1.9v0.9h-4.6v-0.9H22z M23.7,222.1h0.9v1.7c0.5-1.1,0.9-2.3,1.1-3.7
		l0.9,0.2c-0.1,0.5-0.2,1-0.3,1.4h0.9c-0.1-0.5-0.3-0.9-0.4-1.4l0.9-0.3c0.2,0.6,0.4,1.1,0.5,1.6h0.9v0.9h-0.9v1.1h0.7v0.9h-0.7v1.1
		h0.7v0.9h-0.7v1.2h1.1v0.9h-2.9v0.4h-0.9v-5.4c-0.1,0.3-0.3,0.5-0.4,0.7l-0.4-0.4v0.5h-1.5c0,0.2-0.1,0.3-0.1,0.5h1.9v3.2
		c0,0.5-0.3,0.8-0.9,0.8h-0.7l-0.2-0.8l0.7,0c0.2,0,0.3-0.1,0.3-0.2v-2.2h-1.3c-0.1,0.4-0.2,0.7-0.3,1c0.2,0,0.4-0.1,0.6-0.1
		c-0.1-0.2-0.1-0.4-0.2-0.6l0.6-0.2c0.2,0.5,0.4,1,0.5,1.7l-0.6,0.2c0-0.1-0.1-0.3-0.1-0.4c-0.5,0.1-1,0.2-1.6,0.3l-0.1-0.6
		c0.1-0.1,0.3-0.5,0.5-1.3h-0.5v3.2h-0.9v-4h1.7c0-0.2,0.1-0.3,0.1-0.5h-1.6v-2.6h0.9v1.8h2.2V222.1z M22.6,222.4
		c0.1-0.2,0.2-0.4,0.3-0.6l0.6,0.4c-0.1,0.2-0.3,0.5-0.4,0.7c0.2,0.2,0.3,0.3,0.5,0.5l-0.5,0.5c-0.1-0.2-0.3-0.3-0.4-0.5
		c-0.2,0.2-0.5,0.4-0.8,0.5l-0.3-0.6c0.2-0.1,0.4-0.2,0.6-0.4c-0.2-0.2-0.4-0.3-0.6-0.5l0.5-0.5C22.3,222,22.5,222.2,22.6,222.4z
		 M26.4,222.6v1.1h0.8v-1.1H26.4z M26.4,225.7h0.8v-1.1h-0.8V225.7z M26.4,227.9h0.8v-1.2h-0.8V227.9z M32.3,223.9l-0.7,0.7
		c-0.3-0.4-0.8-0.8-1.5-1.3l0.7-0.7C31.4,223,31.9,223.5,32.3,223.9z M32.5,226c-0.4,1.2-0.9,2.2-1.4,3.3l-1-0.4
		c0.5-1,1-2.1,1.4-3.2L32.5,226z M32.5,221.4l-0.7,0.7c-0.3-0.4-0.8-0.8-1.5-1.3l0.7-0.7C31.6,220.6,32.1,221,32.5,221.4z
		 M33.7,222.3h4.9c0,0.9-0.1,1.6-0.1,2.3h0.8v1h-0.8c0,0.6-0.1,1-0.1,1.4h0.7v0.9h-0.8c0,0.2,0,0.4-0.1,0.5
		c-0.1,0.3-0.3,0.6-0.6,0.7c-0.3,0.1-0.7,0.2-1.2,0.2c-0.3,0-0.6,0-1,0l-0.3-0.9c0.4,0,0.8,0,1.1,0c0.2,0,0.4,0,0.6-0.1
		c0.2-0.1,0.3-0.2,0.4-0.4c0,0,0,0,0-0.1h-4.7c0.2-0.8,0.3-1.6,0.4-2.3h-0.9v-1h1c0.1-0.6,0.1-1.2,0.1-1.8c-0.1,0.2-0.3,0.3-0.4,0.5
		l-0.7-0.8c0.6-0.6,1.2-1.4,1.6-2.5l1,0.2l-0.2,0.6H39v1h-4.9C34,221.9,33.9,222.1,33.7,222.3z M33.8,227h2
		c-0.3-0.3-0.7-0.6-1.1-0.9l0.5-0.5h-1.2C34,226.1,33.9,226.6,33.8,227z M34.3,223.2c0,0.5-0.1,1-0.1,1.4H36
		c-0.3-0.3-0.6-0.5-1.1-0.8l0.6-0.6H34.3z M37.6,223.2h-2.1c0.5,0.3,0.9,0.6,1.2,0.9l-0.5,0.5h1.4C37.6,224.2,37.6,223.7,37.6,223.2
		z M37.5,227c0-0.4,0-0.9,0.1-1.4h-1.9c0.4,0.3,0.7,0.6,1,0.9l-0.6,0.6H37.5z M42.6,224l-0.7,0.7c-0.4-0.5-1-1-1.8-1.5l0.7-0.7
		C41.6,223,42.2,223.5,42.6,224z M42.9,225.7c-0.5,1.2-1,2.4-1.6,3.5l-1-0.5c0.6-1.1,1.2-2.3,1.7-3.5L42.9,225.7z M43,221.7
		l-0.7,0.7c-0.4-0.5-1.1-1-1.9-1.5l0.7-0.7C41.9,220.7,42.5,221.2,43,221.7z M49.1,226.3c-0.4,0.4-0.9,0.8-1.4,1
		c0.4,0.4,1,0.8,1.6,1.1l-0.6,0.9c-1.8-1-2.8-2.4-3.2-4.1h-1.3v2.9c0.6-0.1,1.2-0.3,1.8-0.5l0.2,0.9c-0.9,0.3-2,0.5-3.3,0.8
		l-0.2-0.9c0.3-0.1,0.5-0.2,0.5-0.5v-7h1.9c-0.1-0.2-0.2-0.4-0.4-0.6l1-0.2c0.1,0.2,0.3,0.5,0.4,0.8h2.3v4.4h-1.9
		c0.1,0.5,0.3,0.9,0.6,1.3c0.4-0.2,0.9-0.6,1.3-1L49.1,226.3z M47.5,221.8h-3.2v0.8h3.2V221.8z M44.3,224.3h3.2v-0.8h-3.2V224.3z
		 M57.8,225.4v2.1h-1l-0.3,0.6h2.7v0.9h-8.9v-0.9h2.6l-0.3-0.6h-1v-2.1H57.8z M59,224.6h-1v-0.8h-6.6v0.8h-1V223H59V224.6z
		 M54.2,220.6v-0.5h1v0.5h3.7v0.8h-3.7v0.4h3.1v0.8h-7.1v-0.8h3v-0.4h-3.6v-0.8H54.2z M57.6,224.2v0.8h-5.9v-0.8H57.6z M56.8,226.2
		h-4.2v0.6h4.2V226.2z M55.4,228.2l0.3-0.6h-2l0.3,0.6H55.4z M62.3,229.3h-1V225c-0.2,0.7-0.5,1.4-0.8,2l-0.5-0.9
		c0.5-0.9,0.9-2,1.2-3.2h-0.9v-1h1v-1.9h1v1.9h0.8v1h-0.8v0.5c0.3,0.4,0.7,0.9,1,1.4l-0.6,0.8c-0.2-0.4-0.3-0.7-0.5-0.9V229.3z
		 M65.5,226.3v0.7c-0.3,1-1.1,1.8-2.1,2.3l-0.6-0.8c0.8-0.3,1.4-0.8,1.7-1.4h-1.3v-0.8H65.5z M64.6,221c-0.1-0.3-0.2-0.5-0.3-0.7
		l1-0.2c0.1,0.3,0.2,0.6,0.3,0.9h1.2c0.1-0.3,0.2-0.6,0.3-0.9l1,0.1c-0.1,0.3-0.2,0.5-0.3,0.8H69v0.8h-2.3v0.4h2v0.7h-2v0.4h2.5v0.8
		h-6v-0.8h2.5v-0.4h-2v-0.7h2v-0.4h-2.3V221H64.6z M64.8,228.4l0.7,0c0.1,0,0.2-0.1,0.2-0.3V226h-1.9v-0.8h2.9v0.9
		c0.1,0.1,0.1,0.2,0.2,0.3c0.5-0.2,1-0.6,1.5-1.1l0.6,0.6c-0.5,0.5-1,0.9-1.6,1.1c0.5,0.5,1.1,1,1.9,1.3l-0.7,0.8
		c-0.8-0.5-1.5-1.1-2-1.8v1.1c0,0.6-0.3,0.8-1,0.8h-0.7L64.8,228.4z M67.8,224.7l-0.3,0.7c-0.8-0.2-1.7-0.4-2.6-0.5l0.3-0.6
		C66.1,224.3,67,224.5,67.8,224.7z M72.3,227.1c0.2,0.2,0.3,0.5,0.3,0.9c0,0.5-0.2,1-0.5,1.4c-0.3,0.4-0.7,0.7-1.2,0.8v-0.7
		c0.3-0.1,0.5-0.3,0.7-0.5c0.2-0.2,0.3-0.5,0.3-0.7c-0.1,0-0.1,0-0.2,0c-0.2,0-0.4-0.1-0.5-0.2s-0.2-0.3-0.2-0.6
		c0-0.2,0.1-0.4,0.2-0.6c0.1-0.1,0.3-0.2,0.6-0.2C71.9,226.8,72.1,226.9,72.3,227.1z"/>
</g>
<g id="XMLID_235_">
	<path id="XMLID_236_" class="st0" d="M8.6,240.4v2.3H7.1v0.5h2v1h-2v1.1c0,0.7-0.3,1-1,1H4.8l-0.2-1c0.4,0,0.8,0.1,1.2,0.1
		c0.2,0,0.3-0.1,0.3-0.4v-0.8H2.9c0.5,0.3,1,0.6,1.4,1l-0.7,0.7c-0.4-0.4-1-0.8-1.7-1.2l0.5-0.4H0.3v-1h5.8v-0.5H4.6v-2.3H8.6z
		 M4.2,240.4v0.8H2.9v0.7c0.5-0.1,1-0.1,1.4-0.2v0.8c-1,0.2-2.2,0.4-3.6,0.5l-0.3-0.9c0.5,0,0.9-0.1,1.4-0.2v-0.8H0.6v-0.8H4.2z
		 M1,240.1v-0.8h6.1V239h-6v-0.7h6V238H1v-0.8h7.1v2.9H1z M7.6,241.2h-2v0.7h2V241.2z M13.5,242c-0.3,0.2-0.7,0.4-1.1,0.5v2.7
		c0,0.7-0.3,1-1,1h-0.9l-0.2-1c0.3,0,0.5,0.1,0.7,0.1c0.2,0,0.3-0.1,0.3-0.4v-2c-0.4,0.1-0.7,0.3-1.1,0.4l-0.3-1.1
		c0.5-0.1,0.9-0.2,1.4-0.4v-2h-1.2v-1h1.2v-1.7h1v1.7h1v1h-1v1.6c0.4-0.2,0.7-0.3,1.1-0.5V242z M18.8,240l-3,0.5
		c0,0.4,0.1,0.8,0.2,1.2c0.1,0.4,0.2,0.7,0.3,1c0.6-0.6,1.1-1.3,1.5-2.1l0.9,0.5c-0.6,1.1-1.2,1.9-2,2.7c0.1,0.1,0.1,0.3,0.2,0.4
		c0.3,0.6,0.6,0.8,0.9,0.9c0.2,0,0.4-0.5,0.6-1.5l0.9,0.6c-0.2,0.6-0.4,1-0.6,1.4c-0.3,0.5-0.6,0.7-0.9,0.7c-0.5,0-1-0.3-1.4-1
		c-0.2-0.2-0.4-0.5-0.5-0.8c-0.6,0.4-1.3,0.8-2.1,1.1l-0.6-0.9c0.8-0.3,1.6-0.7,2.3-1.2c-0.1-0.3-0.2-0.7-0.3-1
		c-0.1-0.5-0.2-1.1-0.3-1.7l-1.2,0.2l-0.1-1l1.2-0.2c-0.1-0.8-0.1-1.7-0.1-2.6h1.1c0,0.9,0,1.7,0.1,2.4l2.9-0.5L18.8,240z
		 M18.1,238.4l-0.9,0.5c-0.3-0.5-0.6-0.9-0.9-1.3l0.9-0.4C17.5,237.5,17.8,237.9,18.1,238.4z M21.9,246.3h-1v-7.4h3
		c-0.3-0.6-0.6-1-1-1.3l0.9-0.6c0.4,0.4,0.8,1,1.2,1.9h3.7v6.2c0,0.7-0.4,1.1-1.1,1.1H26l-0.3-1l1.5,0c0.2,0,0.3-0.1,0.3-0.4v-1.6
		L27,244c-0.9-0.6-1.7-1.6-2.3-3.1c-0.4,1.4-1.2,2.4-2.2,3.2l-0.6-0.8V246.3z M21.9,239.9v3.3c1.1-0.8,1.8-1.9,2.2-3.3H21.9z
		 M27.6,239.9h-2.3c0.6,1.5,1.4,2.6,2.3,3.3V239.9z M32.1,240.4c-0.3,1.8-0.6,3.4-1.1,4.7l-0.9-0.6c0.5-1.4,0.8-2.8,1-4.3
		L32.1,240.4z M33.8,246c-0.8,0-1.2-0.4-1.2-1.2v-5.6h1v5.4c0,0.3,0.2,0.4,0.5,0.4h1.7c0.2,0,0.3-0.1,0.4-0.3
		c0.1-0.2,0.2-0.9,0.2-1.9l1,0.3c-0.1,1.4-0.2,2.3-0.4,2.5c-0.2,0.3-0.5,0.4-0.9,0.4H33.8z M36.4,239.7l-0.9,0.6
		c-0.5-0.8-1.2-1.7-2-2.7l0.9-0.5C35.2,238.1,35.9,239,36.4,239.7z M39.4,244.2l-1,0.4c-0.5-1.7-1-3.1-1.5-4.4l1-0.3
		C38.5,241.2,39,242.7,39.4,244.2z M49.2,240.9v0.8h-4.4v2.9c0.2,0,0.3-0.1,0.5-0.1v0.8c-0.2,0-0.3,0.1-0.5,0.1v0.9h-1v-0.8
		c-0.9,0.1-2,0.2-3.3,0.3l-0.1-0.9l0.8,0v-3.2h-0.8v-0.8H49.2z M48.1,237.4v3.1h-6.6v-3.1H48.1z M43.7,242.3v-0.5h-1.7v0.5H43.7z
		 M43.7,243.5V243h-1.7v0.5H43.7z M43.7,244.8v-0.5h-1.7v0.6C42.7,244.9,43.2,244.8,43.7,244.8z M47.1,238.6v-0.4h-4.6v0.4H47.1z
		 M47.1,239.3h-4.6v0.5h4.6V239.3z M45.1,243v-0.8h3.5v0.8c-0.2,0.7-0.4,1.3-0.9,1.8c0.4,0.3,0.9,0.5,1.4,0.7l-0.5,0.9
		c-0.6-0.3-1.1-0.6-1.5-0.9c-0.4,0.4-1,0.7-1.6,0.9l-0.5-0.8c0.5-0.2,1-0.5,1.4-0.8c-0.5-0.5-0.8-1.1-1-1.8H45.1z M47.7,243h-1.4
		c0.1,0.4,0.4,0.8,0.7,1.2C47.3,243.8,47.6,243.4,47.7,243z M52.6,241.1l-0.7,0.7c-0.4-0.5-1-1-1.8-1.5l0.7-0.7
		C51.5,240,52.1,240.5,52.6,241.1z M52.9,242.7c-0.5,1.3-1,2.4-1.6,3.5l-1-0.4c0.7-1.1,1.2-2.3,1.7-3.5L52.9,242.7z M52.9,238.7
		l-0.7,0.7c-0.4-0.5-1.1-1-1.9-1.5l0.7-0.7C51.8,237.7,52.4,238.2,52.9,238.7z M53.1,242.7v-0.9h2.5v-1h1v1h2.5v0.9h-1.7
		c0.4,0.8,1.1,1.5,2,2.1l-0.7,0.8c-1-0.9-1.7-1.9-2.1-2.9h-0.1v3.6h-1v-3.6h-0.1c-0.5,1.2-1.3,2.2-2.5,3l-0.5-0.9
		c1-0.6,1.7-1.3,2.2-2.1H53.1z M58.9,239.4h-1v-1.1h-3.8v1.1h-1v-2h5.7V239.4z M55.7,239.2c-0.4,0.9-1,1.6-1.7,2.1l-0.8-0.6
		c0.7-0.4,1.3-1,1.6-1.8L55.7,239.2z M58.7,240.7l-0.8,0.6c-0.4-0.6-0.9-1.3-1.6-2l0.8-0.5C57.7,239.5,58.3,240.1,58.7,240.7z
		 M65.2,237.1v0.3h3.5v0.8h-3.5v0.4H69v0.4c-0.1,0.5-0.2,0.9-0.3,1.4l-0.9-0.3c0.1-0.2,0.2-0.5,0.2-0.7h-2.8v0.6l2-0.1l0.1,0.7
		l-2.1,0.1v0.2c0,0.1,0.1,0.2,0.2,0.2h2.1c0.1,0,0.2,0,0.3-0.1c0.1-0.1,0.1-0.2,0.1-0.6l0.9,0.3c-0.1,0.6-0.2,0.9-0.4,1
		c-0.2,0.1-0.4,0.1-0.8,0.1h-2.5c-0.7,0-1-0.3-1-0.8v-0.3l-1.7,0.1l-0.1-0.8l1.8-0.1v-0.6h-2.2v1.9c0,0.9-0.1,1.7-0.2,2.4
		c0.5-0.6,0.9-1.3,1.1-2.2l0.9,0.2c0,0.2-0.1,0.4-0.2,0.6h1.6v0.8c-0.2,0.6-0.5,1.1-0.8,1.5c0.2,0.1,0.5,0.3,0.7,0.3
		c0.5,0.2,1.2,0.2,2.3,0.3c0.6,0,1.3,0,1.9,0l-0.2,1h-1.1c-1.7,0-2.9-0.2-3.5-0.4c-0.3-0.1-0.5-0.3-0.7-0.4c-0.5,0.4-1,0.8-1.6,1
		l-0.5-0.9c0.6-0.2,1.1-0.5,1.5-0.8c-0.2-0.2-0.3-0.4-0.4-0.7c-0.2,0.2-0.4,0.4-0.5,0.6l-0.5-0.6c-0.2,0.9-0.4,1.6-0.8,2.3l-0.8-0.7
		c0.5-1.1,0.8-2.5,0.9-4.2v-2.8h3.2v-1.5H65.2z M63.8,244.1c0.2-0.3,0.4-0.6,0.5-0.9h-1c0,0,0,0,0,0
		C63.4,243.5,63.6,243.8,63.8,244.1z M68.2,242.3v1.6c0,0.1,0,0.2,0.1,0.2H69v0.9h-0.9c-0.5,0-0.8-0.3-0.8-0.8v-0.9h-0.7
		c0,0.3-0.1,0.6-0.2,0.9c-0.1,0.3-0.3,0.6-0.7,1l-0.7-0.6c0.2-0.2,0.4-0.4,0.5-0.7c0.1-0.3,0.2-0.7,0.2-1.5H68.2z M73.9,245.7h-1
		v-0.5h-1.5v0.8h-1v-7.3h1c0.2-0.5,0.3-1.1,0.4-1.6l1,0.1c-0.1,0.5-0.3,1-0.4,1.5h1.5V245.7z M72.9,241.4v-1.7h-1.5v1.7H72.9z
		 M72.9,244.3v-1.9h-1.5v1.9H72.9z M78.9,245.2c-0.1,0.7-0.6,1-1.4,1c-0.2,0-0.6,0-1.1-0.1l-0.2-0.9c0.4,0,0.8,0,1.2,0
		c0.4,0,0.6-0.2,0.6-0.6c0.1-0.5,0.1-2.1,0.1-5h-2.4c-0.3,0.6-0.6,1.1-1,1.6l-0.6-0.8c0.7-0.9,1.1-2.1,1.3-3.5l1,0.1
		c-0.1,0.5-0.2,1-0.4,1.5h3C79,242.2,79,244.4,78.9,245.2z M77.2,243.3l-0.8,0.6c-0.4-0.7-0.9-1.4-1.5-2.2l0.8-0.5
		C76.3,241.9,76.8,242.7,77.2,243.3z M88.2,246.3h-1.1v-0.5h-4.8v0.5h-1.1v-8.2h2.2c0.2-0.4,0.4-0.7,0.5-1.1l1.1,0.1
		c-0.1,0.3-0.2,0.7-0.4,1h3.7V246.3z M87.1,240.4v-1.2h-4.8v1.2H87.1z M87.1,242.5v-1.2h-4.8v1.2H87.1z M87.1,244.8v-1.3h-4.8v1.3
		H87.1z M98.8,245.5c-0.2,0.3-0.6,0.5-1.3,0.5h-5.3c-0.9,0-1.3-0.4-1.3-1.2v-4h6.2v-2.3h-6.3v-1h7.4v4.3H92v2.6
		c0,0.4,0.2,0.6,0.7,0.6h4.6c0.4,0,0.7-0.1,0.8-0.4c0.1-0.3,0.2-0.8,0.2-1.5l1,0.3C99.2,244.5,99,245.2,98.8,245.5z M102.3,244.1
		c0.2,0.2,0.3,0.5,0.3,0.9c0,0.5-0.2,1-0.5,1.4c-0.3,0.4-0.7,0.7-1.2,0.8v-0.7c0.3-0.1,0.5-0.3,0.7-0.5c0.2-0.2,0.3-0.5,0.3-0.7
		c-0.1,0-0.1,0-0.2,0c-0.2,0-0.4-0.1-0.5-0.2s-0.2-0.3-0.2-0.6c0-0.2,0.1-0.4,0.2-0.6c0.1-0.1,0.3-0.2,0.6-0.2
		C101.9,243.8,102.1,243.9,102.3,244.1z"/>
</g>
<g id="XMLID_181_">
	<path id="XMLID_182_" class="st0" d="M8.8,263.1h-1v-0.3H1.6v0.3h-1v-8.5h8.3V263.1z M7.8,261.9v-6.3H1.6v6.3H7.8z M6.7,256.8v3.7
		h-4v-3.7H6.7z M5.8,257.7H3.7v2h2.1V257.7z M10.4,259.5v-4.7h0.9c0.1-0.2,0.2-0.5,0.3-0.7l1,0.1c-0.1,0.2-0.2,0.4-0.3,0.6h1.2v2.1
		h-2.3v0.4h2.4v2.2h-1.1v0.6h1v0.8h-1v1c0.4-0.1,0.8-0.2,1.2-0.3v0.9c-1.1,0.3-2.3,0.5-3.6,0.7l-0.2-1c0.1,0,0.3,0,0.4,0v-2.4h0.9
		v2.3c0.1,0,0.2,0,0.3,0v-2.6H10.4z M12.7,256.2v-0.6h-1.4v0.6H12.7z M11.3,258.7h1.5v-0.6h-1.5V258.7z M19.2,259.9h-0.5v2
		c0,0.5-0.3,0.8-0.8,0.8h-0.4l-0.2-0.8l0.3,0c0.2,0,0.3-0.1,0.3-0.2v-1.3H17v3h-0.9v-3h-0.7v2.4h-0.9v-2.8H14v-2h5.2V259.9z
		 M14.5,257.6v-0.8h3.2v-0.4h-2.9v-0.8h2.9v-0.4h-3.2v-0.8h4.1v3.2H14.5z M16.1,259.5v-0.7h-1.2v0.7H16.1z M18.3,259.5v-0.7H17v0.7
		H18.3z M28.7,256.6c-0.4,0.1-0.8,0.2-1.2,0.3c0.6,0.1,1.2,0.2,1.7,0.3l-0.3,0.7l-0.2-0.1v1.5h-4.4l-0.2,0.2h5c0,1.6,0,2.5-0.1,2.9
		c-0.1,0.6-0.5,0.8-1.3,0.8c-0.1,0-0.3,0-0.5,0l-0.1-0.3l-0.2,0.1c0-0.1-0.1-0.2-0.1-0.2c-1.4,0.1-2.9,0.2-4.5,0.3l-0.2-0.7
		c0.9,0,1.8,0,2.6-0.1v-0.3h-2.1v-1.2c-0.2,0.1-0.5,0.2-0.7,0.4l-0.3-0.5c-0.1,0.9-0.3,1.7-0.6,2.5l-0.9-0.8
		c0.4-1.1,0.6-2.5,0.6-4.2v-4H29v1.9h-0.5L28.7,256.6z M22.2,256.6l0.2-0.5h-0.7v2.1c0,0.7,0,1.4-0.1,2.1c0.6-0.2,1.1-0.5,1.5-0.9
		h-0.9v-1.5c-0.1,0-0.1,0-0.2,0l-0.2-0.7c0.6-0.1,1.2-0.2,1.9-0.3C23.2,256.8,22.7,256.7,22.2,256.6z M21.7,255v0.4H28V255H21.7z
		 M25.9,257.3v0.4h-1v-0.3c-0.7,0.2-1.4,0.3-2.1,0.5h5.8C27.6,257.6,26.8,257.5,25.9,257.3z M25.9,256.3v0.4c0.2,0,0.4,0,0.5,0.1
		l-0.1-0.3c0.6-0.1,1.1-0.2,1.6-0.4h-5c0.5,0.1,0.9,0.2,1.4,0.4l-0.1,0.3c0.2,0,0.4-0.1,0.7-0.2v-0.4H25.9z M23.3,260.3
		c-0.1,0.1-0.2,0.2-0.4,0.3h1.7v-0.3H23.3z M24,258.4h-0.8v0.4H24V258.4z M24.6,261.2h-1.1v0.3h1.1V261.2z M25.8,258.4H25v0.4h0.8
		V258.4z M27.5,262.6c0.3,0,0.4-0.1,0.5-0.4c0-0.2,0.1-0.8,0.1-1.8h-2.6v0.3h2v1.5h-0.4C27.3,262.3,27.4,262.4,27.5,262.6
		L27.5,262.6z M26.7,261.2h-1.1v0.3h1.1V261.2z M26.3,262.1h-0.7v0.2c0.3,0,0.6,0,0.9,0C26.4,262.2,26.3,262.1,26.3,262.1z
		 M27.6,258.4h-0.9v0.4h0.9V258.4z M31.9,255.4c-0.1-0.4-0.3-0.7-0.5-1.1l1-0.3c0.2,0.5,0.4,0.9,0.5,1.3h1.5v1H32v1.1h1.9
		c0,2.5,0,4-0.1,4.6c-0.1,0.8-0.5,1.2-1.2,1.2c-0.1,0-0.3,0-0.6-0.1l-0.2-0.9c0.2,0,0.5,0,0.7,0c0.3,0,0.4-0.2,0.5-0.7
		c0-0.3,0.1-1.3,0.1-3.1H32c-0.1,2.2-0.5,3.8-1.2,4.8l-0.8-0.7c0.6-1,1-2.5,1-4.7v-1.6h-0.8v-1H31.9z M37,254.2
		c0.5,1.3,1.3,2.5,2.4,3.5l-0.6,0.9c-1-0.9-1.8-2-2.3-3.4c-0.5,1.5-1.2,2.6-2.1,3.4l-0.6-0.8c0.9-0.9,1.7-2.1,2.2-3.6H37z
		 M38.8,262.6l-0.7,0.8c-0.9-0.8-2.1-1.6-3.5-2.3l0.6-0.7C36.6,261,37.8,261.8,38.8,262.6z M38.2,259.6l-0.6,0.7
		c-0.6-0.6-1.3-1.3-2.2-1.8l0.6-0.7C36.8,258.4,37.6,259,38.2,259.6z M48.2,263.3h-1.1v-0.5h-4.8v0.5h-1.1v-8.2h2.2
		c0.2-0.4,0.4-0.7,0.5-1.1l1.1,0.1c-0.1,0.3-0.2,0.7-0.4,1h3.7V263.3z M47.1,257.4v-1.2h-4.8v1.2H47.1z M47.1,259.5v-1.2h-4.8v1.2
		H47.1z M47.1,261.8v-1.3h-4.8v1.3H47.1z M58.8,262.5c-0.2,0.3-0.6,0.5-1.3,0.5h-5.3c-0.9,0-1.3-0.4-1.3-1.2v-4h6.2v-2.3h-6.3v-1
		h7.4v4.3H52v2.6c0,0.4,0.2,0.6,0.7,0.6h4.6c0.4,0,0.7-0.1,0.8-0.4c0.1-0.3,0.2-0.8,0.2-1.5l1,0.3C59.2,261.5,59,262.2,58.8,262.5z
		 M63.9,262.7h-1v-0.5h-1.5v0.8h-1v-7.3h1c0.2-0.5,0.3-1.1,0.4-1.6l1,0.1c-0.1,0.5-0.3,1-0.4,1.5h1.5V262.7z M62.9,258.4v-1.7h-1.5
		v1.7H62.9z M62.9,261.3v-1.9h-1.5v1.9H62.9z M68.9,262.2c-0.1,0.7-0.6,1-1.4,1c-0.2,0-0.6,0-1.1-0.1l-0.2-0.9c0.4,0,0.8,0,1.2,0
		c0.4,0,0.6-0.2,0.6-0.6c0.1-0.5,0.1-2.1,0.1-5h-2.4c-0.3,0.6-0.6,1.1-1,1.6l-0.6-0.8c0.7-0.9,1.1-2.1,1.3-3.5l1,0.1
		c-0.1,0.5-0.2,1-0.4,1.5h3C69,259.2,69,261.4,68.9,262.2z M67.2,260.3l-0.8,0.6c-0.4-0.7-0.9-1.4-1.5-2.2l0.8-0.5
		C66.3,258.9,66.8,259.7,67.2,260.3z M72.3,257.9l-0.7,0.7c-0.3-0.4-0.8-0.8-1.5-1.3l0.7-0.7C71.4,257,71.9,257.5,72.3,257.9z
		 M72.5,260c-0.4,1.2-0.9,2.2-1.4,3.3l-1-0.4c0.5-1,1-2.1,1.4-3.2L72.5,260z M72.5,255.4l-0.7,0.7c-0.3-0.4-0.8-0.8-1.5-1.3l0.7-0.7
		C71.6,254.6,72.1,255,72.5,255.4z M73.7,256.3h4.9c0,0.9-0.1,1.6-0.1,2.3h0.8v1h-0.8c0,0.6-0.1,1-0.1,1.4h0.7v0.9h-0.8
		c0,0.2,0,0.4-0.1,0.5c-0.1,0.3-0.3,0.6-0.6,0.7c-0.3,0.1-0.7,0.2-1.2,0.2c-0.3,0-0.6,0-1,0l-0.3-0.9c0.4,0,0.8,0,1.1,0
		c0.2,0,0.4,0,0.6-0.1c0.2-0.1,0.3-0.2,0.4-0.4c0,0,0,0,0-0.1h-4.7c0.2-0.8,0.3-1.6,0.4-2.3h-0.9v-1h1c0.1-0.6,0.1-1.2,0.1-1.8
		c-0.1,0.2-0.3,0.3-0.4,0.5l-0.7-0.8c0.6-0.6,1.2-1.4,1.6-2.5l1,0.2l-0.2,0.6H79v1h-4.9C74,255.9,73.9,256.1,73.7,256.3z M73.8,261
		h2c-0.3-0.3-0.7-0.6-1.1-0.9l0.5-0.5h-1.2C74,260.1,73.9,260.6,73.8,261z M74.3,257.2c0,0.5-0.1,1-0.1,1.4H76
		c-0.3-0.3-0.6-0.5-1.1-0.8l0.6-0.6H74.3z M77.6,257.2h-2.1c0.5,0.3,0.9,0.6,1.2,0.9l-0.5,0.5h1.4C77.6,258.2,77.6,257.7,77.6,257.2
		z M77.5,261c0-0.4,0-0.9,0.1-1.4h-1.9c0.4,0.3,0.7,0.6,1,0.9l-0.6,0.6H77.5z M82.5,258.1l-0.7,0.7c-0.4-0.5-0.9-1-1.7-1.5l0.7-0.7
		C81.5,257.2,82,257.7,82.5,258.1z M82.6,259.8c-0.4,1.3-0.9,2.4-1.4,3.5l-1-0.4c0.6-1.1,1.1-2.3,1.5-3.5L82.6,259.8z M82.7,255.7
		l-0.7,0.7c-0.4-0.5-1-1-1.7-1.5l0.7-0.7C81.7,254.7,82.3,255.2,82.7,255.7z M83.1,256.8v-1h1.5c-0.2-0.5-0.5-0.9-0.8-1.2l0.9-0.4
		c0.3,0.4,0.6,0.9,0.8,1.4l-0.5,0.3h1.5c0.3-0.5,0.5-1.1,0.7-1.7l1,0.4c-0.2,0.5-0.4,0.9-0.7,1.3H89v1h-2.4v1.1h2.1v1h-2.1v1.2h2.8
		v1h-2.8v2.3h-1.1v-2.3h-2.7v-1h2.7v-1.2h-2.1v-1h2.1v-1.1H83.1z M93.2,261.2c0.3,0.3,0.4,0.6,0.4,1c0,0.4-0.1,0.7-0.4,1
		c-0.3,0.3-0.6,0.4-1,0.4c-0.4,0-0.7-0.1-1-0.4c-0.3-0.3-0.4-0.6-0.4-1c0-0.4,0.1-0.7,0.4-1c0.3-0.3,0.6-0.4,1-0.4
		C92.6,260.8,92.9,260.9,93.2,261.2z M91.7,261.7c-0.1,0.1-0.2,0.3-0.2,0.5c0,0.2,0.1,0.3,0.2,0.5c0.1,0.1,0.3,0.2,0.5,0.2
		s0.3-0.1,0.5-0.2c0.1-0.1,0.2-0.3,0.2-0.5c0-0.2-0.1-0.3-0.2-0.5c-0.1-0.1-0.3-0.2-0.5-0.2S91.9,261.5,91.7,261.7z"/>
</g>
<g id="XMLID_140_">
	<path id="XMLID_141_" class="st0" d="M8.6,274.4v2.3H7.1v0.5h2v1h-2v1.1c0,0.7-0.3,1-1,1H4.8l-0.2-1c0.4,0,0.8,0.1,1.2,0.1
		c0.2,0,0.3-0.1,0.3-0.4v-0.8H2.9c0.5,0.3,1,0.6,1.4,1l-0.7,0.7c-0.4-0.4-1-0.8-1.7-1.2l0.5-0.4H0.3v-1h5.8v-0.5H4.6v-2.3H8.6z
		 M4.2,274.4v0.8H2.9v0.7c0.5-0.1,1-0.1,1.4-0.2v0.8c-1,0.2-2.2,0.4-3.6,0.5l-0.3-0.9c0.5,0,0.9-0.1,1.4-0.2v-0.8H0.6v-0.8H4.2z
		 M1,274.1v-0.8h6.1V273h-6v-0.7h6V272H1v-0.8h7.1v2.9H1z M7.6,275.2h-2v0.7h2V275.2z M13.5,276c-0.3,0.2-0.7,0.4-1.1,0.5v2.7
		c0,0.7-0.3,1-1,1h-0.9l-0.2-1c0.3,0,0.5,0.1,0.7,0.1c0.2,0,0.3-0.1,0.3-0.4v-2c-0.4,0.1-0.7,0.3-1.1,0.4l-0.3-1.1
		c0.5-0.1,0.9-0.2,1.4-0.4v-2h-1.2v-1h1.2v-1.7h1v1.7h1v1h-1v1.6c0.4-0.2,0.7-0.3,1.1-0.5V276z M18.8,274l-3,0.5
		c0,0.4,0.1,0.8,0.2,1.2c0.1,0.4,0.2,0.7,0.3,1c0.6-0.6,1.1-1.3,1.5-2.1l0.9,0.5c-0.6,1.1-1.2,1.9-2,2.7c0.1,0.1,0.1,0.3,0.2,0.4
		c0.3,0.6,0.6,0.8,0.9,0.9c0.2,0,0.4-0.5,0.6-1.5l0.9,0.6c-0.2,0.6-0.4,1-0.6,1.4c-0.3,0.5-0.6,0.7-0.9,0.7c-0.5,0-1-0.3-1.4-1
		c-0.2-0.2-0.4-0.5-0.5-0.8c-0.6,0.4-1.3,0.8-2.1,1.1l-0.6-0.9c0.8-0.3,1.6-0.7,2.3-1.2c-0.1-0.3-0.2-0.7-0.3-1
		c-0.1-0.5-0.2-1.1-0.3-1.7l-1.2,0.2l-0.1-1l1.2-0.2c-0.1-0.8-0.1-1.7-0.1-2.6h1.1c0,0.9,0,1.7,0.1,2.4l2.9-0.5L18.8,274z
		 M18.1,272.4l-0.9,0.5c-0.3-0.5-0.6-0.9-0.9-1.3l0.9-0.4C17.5,271.5,17.8,271.9,18.1,272.4z M21.4,273l-0.8,0.3
		c-0.2-0.6-0.4-1.1-0.6-1.5l0.8-0.3C21.1,272,21.3,272.4,21.4,273z M22.5,271.1v2.3H23v-2.3h0.9v2.3h1.1v1h-0.7l-0.3,1H25v0.9h-1.7
		v0.8h1.5v0.9h-1.5v0.9c0.7-0.1,1.3-0.1,1.8-0.2v0.9c-0.9,0.2-2.4,0.3-4.6,0.4l-0.1-1c0.7,0,1.4,0,2-0.1v-1h-1.5v-0.9h1.5v-0.8h-1.8
		v-0.9h0.9l-0.3-1h-0.8v-1h1.3v-2.3H22.5z M23.1,275.4l0.3-1H22l0.3,1H23.1z M25.4,271.7c-0.2,0.6-0.3,1.1-0.6,1.6L24,273
		c0.2-0.4,0.4-0.9,0.5-1.6L25.4,271.7z M27,277.3l-0.9,0.4c-0.3-0.9-0.6-1.8-0.9-2.5l0.9-0.3C26.5,275.7,26.8,276.5,27,277.3z
		 M27.5,273v-1.9h1v1.9h0.8v1h-0.8v5.2c0,0.7-0.3,1.1-1,1.1h-1.3l-0.2-1c0.4,0,0.8,0.1,1.1,0.1c0.2,0,0.4-0.1,0.4-0.4V274h-2.1v-1
		H27.5z M31.5,272.2c-0.1-0.3-0.3-0.6-0.4-0.9l1-0.3c0.2,0.4,0.3,0.8,0.4,1.2h1.2v1h-3.6v-1H31.5z M31.4,280.3h-1v-3.7h3.1v3.6h-1
		v-0.4h-1.1V280.3z M33.4,273.7v0.9h-2.9v-0.9H33.4z M33.4,275.1v0.9h-2.9v-0.9H33.4z M32.5,277.6h-1.1v1.3h1.1V277.6z M36,273.9
		v-1.2c-0.5,0-1.1,0.1-1.7,0.1l-0.3-0.9c1.8,0,3.3-0.2,4.5-0.7L39,272c-0.6,0.2-1.2,0.4-2,0.5v1.3h2.3v1H37v1.3h1.8v4.1h-1v-0.4
		h-2.5v0.4h-1v-4.1H36v-1.3h-2.1v-1H36z M37.7,278.9v-1.8h-2.5v1.8H37.7z M42.3,278.1c0.2,0.2,0.3,0.5,0.3,0.9c0,0.5-0.2,1-0.5,1.4
		c-0.3,0.4-0.7,0.7-1.2,0.8v-0.7c0.3-0.1,0.5-0.3,0.7-0.5c0.2-0.2,0.3-0.5,0.3-0.7c-0.1,0-0.1,0-0.2,0c-0.2,0-0.4-0.1-0.5-0.2
		s-0.2-0.3-0.2-0.6c0-0.2,0.1-0.4,0.2-0.6c0.1-0.1,0.3-0.2,0.6-0.2C41.9,277.8,42.1,277.9,42.3,278.1z M52.6,275.1l-0.7,0.7
		c-0.4-0.5-1-1-1.8-1.5l0.7-0.7C51.5,274,52.1,274.5,52.6,275.1z M52.9,276.7c-0.5,1.3-1,2.4-1.6,3.5l-1-0.4
		c0.7-1.1,1.2-2.3,1.7-3.5L52.9,276.7z M52.9,272.7l-0.7,0.7c-0.4-0.5-1.1-1-1.9-1.5l0.7-0.7C51.8,271.7,52.4,272.2,52.9,272.7z
		 M53.1,276.7v-0.9h2.5v-1h1v1h2.5v0.9h-1.7c0.4,0.8,1.1,1.5,2,2.1l-0.7,0.8c-1-0.9-1.7-1.9-2.1-2.9h-0.1v3.6h-1v-3.6h-0.1
		c-0.5,1.2-1.3,2.2-2.5,3l-0.5-0.9c1-0.6,1.7-1.3,2.2-2.1H53.1z M58.9,273.4h-1v-1.1h-3.8v1.1h-1v-2h5.7V273.4z M55.7,273.2
		c-0.4,0.9-1,1.6-1.7,2.1l-0.8-0.6c0.7-0.4,1.3-1,1.6-1.8L55.7,273.2z M58.7,274.7l-0.8,0.6c-0.4-0.6-0.9-1.3-1.6-2l0.8-0.5
		C57.7,273.5,58.3,274.1,58.7,274.7z M63.7,273.5v0.8c-0.5,2.2-1.5,3.9-3,5l-0.7-0.9c1.3-0.9,2.1-2.3,2.6-4h-2.3v-1H63.7z
		 M68.8,273.2c-0.8,0.9-1.5,1.7-2.3,2.3c0.8,1.2,1.7,2.2,2.9,3l-0.6,1c-1.6-1.3-2.7-2.7-3.4-4.2v3.9c0,0.7-0.3,1.1-1,1.1H63l-0.2-1
		c0.4,0,0.8,0.1,1.2,0.1c0.2,0,0.3-0.1,0.3-0.4v-7.8h1.1v2.1c0.2,0.6,0.4,1.1,0.7,1.6c0.7-0.6,1.4-1.4,2-2.2L68.8,273.2z
		 M74.4,273.7h1.9v3.5h1.2l0-0.9h-0.9v-1h1l0-0.9h-1v-0.9h1l0-0.9h-1.2v-1h2.2l-0.2,5.7h0.7v1h-2.6c1,0.4,1.9,0.8,2.7,1.3l-0.6,0.9
		c-1-0.7-2-1.2-3-1.6l0.4-0.6h-2.9l0.7,0.6c-0.8,0.6-1.8,1.1-2.9,1.6l-0.7-0.9c1.1-0.4,2-0.8,2.7-1.3h-2.7v-1h0.7l-0.2-5.4
		c0.7-0.1,1.4-0.3,2.2-0.6l0.4,0.9c-0.3,0.1-0.9,0.3-1.6,0.5l0,0.8h1.3v0.9h-1.3l0,0.9H73v1h-1.1l0,1h1.5v-2.1h1v2.1h0.9v-2.5h-1.9
		v-3.4h1v0.7h1.8v0.9h-1.8V273.7z M82.3,271.2c-0.1,0.6-0.2,1.2-0.2,1.7h1.5v0.6c-0.1,1.6-0.3,3-0.8,4.2c0.3,0.4,0.6,0.7,0.9,1
		l-0.7,0.8c-0.2-0.3-0.4-0.5-0.7-0.8c-0.4,0.7-0.9,1.2-1.4,1.7l-0.7-0.8c0.6-0.5,1-1,1.4-1.7c-0.4-0.4-0.8-0.8-1.2-1.3
		c0.2-0.8,0.4-1.7,0.6-2.7h-0.7v-1h0.9c0.1-0.6,0.2-1.2,0.2-1.8L82.3,271.2z M82.6,273.9h-0.7c-0.2,1-0.4,1.8-0.5,2.4l0.6,0.6
		C82.3,276,82.5,275,82.6,273.9z M85.6,275.6c-0.3,1.3-0.6,2.5-1.1,3.5l-0.9-0.6c0.5-1,0.8-2,1-3.1L85.6,275.6z M84.3,275.1
		l-0.6-0.8c0.7-0.9,1.1-2,1.3-3.3l1.1,0.1c-0.1,0.4-0.2,0.8-0.3,1.2H89v0.7c-0.1,0.7-0.2,1.3-0.4,2l-1-0.3c0.1-0.4,0.2-0.8,0.3-1.3
		h-2.6C85,274,84.7,274.6,84.3,275.1z M85.1,280.3l-0.2-1c0.3,0,0.5,0.1,0.8,0.1c0.2,0,0.3-0.1,0.3-0.3v-4.9h1v5.2c0,0.7-0.3,1-1,1
		H85.1z M89.3,278.7l-0.9,0.4c-0.3-1.3-0.6-2.5-1-3.5l0.9-0.3C88.7,276.4,89,277.5,89.3,278.7z M92.8,278c0.1,0.1,0.2,0.3,0.2,0.5
		s-0.1,0.4-0.2,0.5c-0.2,0.1-0.3,0.2-0.6,0.2s-0.4-0.1-0.5-0.2c-0.2-0.1-0.2-0.3-0.2-0.5s0.1-0.4,0.2-0.5c0.1-0.1,0.3-0.2,0.5-0.2
		S92.6,277.9,92.8,278z M92.9,272.2l-0.2,5.1h-0.8l-0.2-5.1H92.9z"/>
</g>
<g id="XMLID_127_">
	<path id="XMLID_138_" class="st0" d="M1.1,29.3V1.8h5.7V13h11.4V1.8h5.7v27.5h-5.7V16.8H6.9v12.5H1.1z"/>
	<path id="XMLID_135_" class="st0" d="M47.4,28.6c-2.6,0.8-5.1,1.2-7.4,1.2c-3.4,0-6.1-1-8.1-2.9s-3-4.6-3-7.9
		c0-3.2,0.9-5.7,2.7-7.6c1.8-1.9,4.2-2.9,7.1-2.9c3,0,5.2,0.9,6.5,2.8c1.4,1.9,2.1,4.9,2.1,8.9H34.7c0.4,3.9,2.5,5.8,6.4,5.8
		c1.8,0,3.9-0.4,6.2-1.3V28.6z M34.7,17.1H42c0-3.5-1.1-5.2-3.4-5.2C36.3,11.9,35,13.6,34.7,17.1z"/>
	<path id="XMLID_133_" class="st0" d="M53.1,29.3V0h5.5v29.3H53.1z"/>
	<path id="XMLID_131_" class="st0" d="M65.4,29.3V0h5.5v29.3H65.4z"/>
	<path id="XMLID_128_" class="st0" d="M86.3,29.8c-3.2,0-5.7-1-7.6-2.9c-1.9-1.9-2.8-4.5-2.8-7.8c0-3.3,0.9-5.9,2.8-7.8
		c1.9-1.9,4.4-2.9,7.7-2.9c3.3,0,5.8,1,7.7,2.9c1.9,1.9,2.8,4.5,2.8,7.8c0,3.3-0.9,6-2.8,7.8S89.7,29.8,86.3,29.8z M86.4,26.3
		c3.2,0,4.7-2.4,4.7-7.3c0-2.2-0.4-4-1.3-5.3c-0.8-1.3-2-1.9-3.4-1.9c-1.4,0-2.6,0.6-3.4,1.9c-0.8,1.3-1.3,3-1.3,5.3
		c0,2.2,0.4,4,1.2,5.3C83.9,25.7,85,26.3,86.4,26.3z"/>
</g>
<g id="XMLID_102_">
	<path id="XMLID_125_" class="st0" d="M0.9,43.8h5.7v16.8c0,2.7,0.4,4.6,1.3,5.8c0.9,1.2,2.3,1.8,4.2,1.8c1.9,0,3.2-0.6,4.1-1.7
		c0.8-1.1,1.3-2.9,1.3-5.4V43.8h5v16.9c0,2.5-0.2,4.5-0.7,5.8c-0.5,1.3-1.4,2.5-2.6,3.5c-1.7,1.3-4.1,2-7,2c-3.2,0-5.7-0.7-7.6-2.2
		c-1.3-1-2.2-2.2-2.8-3.5c-0.5-1.4-0.8-3.2-0.8-5.7V43.8z"/>
	<path id="XMLID_123_" class="st0" d="M29.1,71.3V50.9h5.5v3.8c1.8-2.9,4.1-4.3,6.9-4.3c1.8,0,3.3,0.6,4.3,1.7
		c1.1,1.2,1.6,2.7,1.6,4.7v14.4h-5.5v-13c0-2.3-0.8-3.5-2.3-3.5c-1.7,0-3.4,1.2-5,3.7v12.8H29.1z"/>
	<path id="XMLID_120_" class="st0" d="M66.9,71.3v-3.8c-1.4,2.9-3.6,4.3-6.7,4.3c-2.4,0-4.4-0.9-5.8-2.7c-1.4-1.8-2.1-4.3-2.1-7.4
		c0-3.4,0.8-6.1,2.4-8.2c1.6-2,3.7-3,6.4-3c2.1,0,4.1,0.8,5.8,2.5V42h5.5v29.3H66.9z M66.9,56.2c-1.3-1.5-2.7-2.2-4.2-2.2
		c-1.3,0-2.4,0.6-3.2,1.9c-0.8,1.3-1.2,3-1.2,5.2c0,4.2,1.3,6.3,4,6.3c1.6,0,3.2-1,4.7-3.1V56.2z"/>
	<path id="XMLID_117_" class="st0" d="M95.8,70.6c-2.6,0.8-5.1,1.2-7.4,1.2c-3.4,0-6.1-1-8.1-2.9s-3-4.6-3-7.9
		c0-3.2,0.9-5.7,2.7-7.6c1.8-1.9,4.2-2.9,7.1-2.9c3,0,5.2,0.9,6.5,2.8c1.4,1.9,2.1,4.9,2.1,8.9H83.2c0.4,3.9,2.5,5.8,6.4,5.8
		c1.8,0,3.9-0.4,6.2-1.3V70.6z M83.1,59.1h7.3c0-3.5-1.1-5.2-3.4-5.2C84.8,53.9,83.5,55.6,83.1,59.1z"/>
	<path id="XMLID_115_" class="st0" d="M101.5,71.3V50.9h5.5v3.8c1.4-2.9,3.6-4.3,6.5-4.3c0.3,0,0.7,0,1,0.1v4.9
		c-0.8-0.3-1.5-0.4-2.2-0.4c-2.2,0-4,1.1-5.3,3.3v12.9H101.5z"/>
	<path id="XMLID_113_" class="st0" d="M122.4,71.3l-5.7-20.4h5.1l4,14.3l4.3-14.3h4.8l3.8,14.3l4.3-14.3h3.8l-6,20.4h-5.3l-3.7-14
		l-4.2,14H122.4z"/>
	<path id="XMLID_110_" class="st0" d="M161.6,69.1c-1.8,1.8-3.8,2.7-5.9,2.7c-1.8,0-3.2-0.5-4.3-1.6c-1.1-1.1-1.7-2.5-1.7-4.2
		c0-2.3,0.9-4,2.7-5.2c1.8-1.2,4.4-1.8,7.7-1.8h1.5V57c0-2.1-1.2-3.2-3.6-3.2c-2.1,0-4.3,0.6-6.5,1.8v-3.8c2.5-0.9,4.9-1.4,7.4-1.4
		c5.3,0,8,2.1,8,6.4v9c0,1.6,0.5,2.4,1.5,2.4c0.2,0,0.4,0,0.7-0.1l0.1,3.1c-1.2,0.3-2.2,0.5-3.1,0.5c-2.3,0-3.7-0.9-4.3-2.7H161.6z
		 M161.6,66.2V62h-1.3c-3.5,0-5.3,1.1-5.3,3.3c0,0.8,0.3,1.4,0.8,1.9c0.5,0.5,1.1,0.8,1.9,0.8C158.9,68,160.2,67.4,161.6,66.2z"/>
	<path id="XMLID_108_" class="st0" d="M184.4,71.2c-1.3,0.4-2.3,0.6-3.1,0.6c-4.8,0-7.1-2.2-7.1-6.7V54.4h-2.3v-3.4h2.3v-3.4
		l5.5-0.6v4.1h4.4v3.4h-4.4v10c0,2.5,1,3.7,3.1,3.7c0.5,0,1-0.1,1.7-0.3V71.2z"/>
	<path id="XMLID_105_" class="st0" d="M205.9,70.6c-2.6,0.8-5.1,1.2-7.4,1.2c-3.4,0-6.1-1-8.1-2.9s-3-4.6-3-7.9
		c0-3.2,0.9-5.7,2.7-7.6c1.8-1.9,4.2-2.9,7.1-2.9c3,0,5.2,0.9,6.5,2.8c1.4,1.9,2.1,4.9,2.1,8.9h-12.6c0.4,3.9,2.5,5.8,6.4,5.8
		c1.8,0,3.9-0.4,6.2-1.3V70.6z M193.2,59.1h7.3c0-3.5-1.1-5.2-3.4-5.2C194.9,53.9,193.6,55.6,193.2,59.1z"/>
	<path id="XMLID_103_" class="st0" d="M211.6,71.3V50.9h5.5v3.8c1.4-2.9,3.6-4.3,6.5-4.3c0.3,0,0.7,0,1,0.1v4.9
		c-0.8-0.3-1.5-0.4-2.2-0.4c-2.2,0-4,1.1-5.3,3.3v12.9H211.6z"/>
</g>
</svg>
