<!-- Generator: Adobe Illustrator 19.0.0, SVG Export Plug-In  -->
<svg version="1.1"
	 xmlns="http://www.w3.org/2000/svg" xmlns:xlink="http://www.w3.org/1999/xlink" xmlns:a="http://ns.adobe.com/AdobeSVGViewerExtensions/3.0/"
	 x="0px" y="0px" width="855.8px" height="271px" viewBox="0 0 855.8 271" style="enable-background:new 0 0 855.8 271;"
	 xml:space="preserve">
<style type="text/css">
	.st0{fill:#FFFFFF;}
	.st1{fill:#F4F4F3;}
	.st2{fill:#2D70F7;}
	.st3{fill:#FFFFFF;stroke:#0828CB;stroke-width:9;stroke-miterlimit:10;}
	.st4{fill:none;}
	.st5{fill:#3366FF;}
	.st6{font-family:'FZLTZHK--GBK1-0';}
	.st7{font-size:40px;}
	.st8{fill:none;stroke:#FFFFFF;stroke-width:9;stroke-miterlimit:10;}
</style>
<defs>
</defs>
<g id="XMLID_23_">
	<g id="XMLID_29_">
		<g id="XMLID_46_">
			<g id="XMLID_78_">
				<path id="XMLID_79_" class="st0" d="M33.9,0.1c1.1,0,2.1,0.4,2.9,1.2C37.5,2,37.9,2.9,37.9,4v27.5c0,4.8-1.7,9-5.2,12.4
					c-3.5,3.4-7.7,5.1-12.6,5.1c-4.9,0-9.1-1.7-12.6-5.1C4,40.5,2.3,36.4,2.3,31.6V4c0-1.1,0.4-2,1.2-2.8c0.8-0.8,1.7-1.2,2.9-1.2
					c1.1,0,2.1,0.4,2.9,1.2C10,2,10.4,2.9,10.4,4v27.5c0,2.6,1,4.9,2.9,6.8c1.9,1.9,4.2,2.8,6.9,2.8c2.7,0,5-0.9,6.9-2.8
					c1.9-1.9,2.9-4.1,2.9-6.8V4c0-1.1,0.4-2,1.2-2.8C31.8,0.5,32.8,0.1,33.9,0.1z"/>
			</g>
			<g id="XMLID_75_">
				<path id="XMLID_76_" class="st0" d="M82.4,47.5L82.4,47.5L82.4,47.5L57.3,15.9V45c0,1.1-0.4,2.1-1.2,2.8
					c-0.8,0.8-1.8,1.2-2.9,1.2c-1.1,0-2.1-0.4-2.9-1.2c-0.8-0.8-1.2-1.7-1.2-2.8V4.1c0-0.9,0.3-1.6,0.8-2.3c0.5-0.7,1.2-1.2,2-1.5
					C52.7,0,53.5,0,54.3,0.2c0.8,0.3,1.5,0.7,2.1,1.4l25.1,31.6V4.1c0-1.1,0.4-2.1,1.2-2.8c0.8-0.8,1.8-1.2,2.9-1.2
					c1.1,0,2.1,0.4,2.9,1.2C89.3,2,89.7,3,89.7,4.1v41c0,0,0,0.1,0,0.2c0,0.1,0,0.1,0,0.2c0,0,0,0.1,0,0.2c0,0.1,0,0.2,0,0.2l0,0.2
					c0,0.1,0,0.2-0.1,0.2c0,0,0,0.1-0.1,0.2c0,0.1,0,0.2-0.1,0.2l-0.1,0.2L89.2,47c0,0-0.1,0.1-0.1,0.2L89,47.3c0,0-0.1,0.1-0.1,0.2
					l-0.1,0.1c0,0-0.1,0.1-0.1,0.1c-0.1,0.1-0.1,0.1-0.1,0.1c0,0,0,0.1-0.1,0.1c-0.1,0.1-0.1,0.1-0.2,0.1c0.1,0,0.1,0,0,0l0,0
					c-0.2,0.1-0.4,0.2-0.5,0.3h0c-0.2,0.1-0.4,0.2-0.6,0.2c-0.1,0-0.1,0.1-0.1,0c-0.2,0.1-0.4,0.1-0.6,0.1l-0.1,0
					c-0.2,0-0.4,0-0.6,0c-0.1,0-0.3,0-0.5,0c0,0,0,0-0.1,0c-0.1,0-0.3,0-0.3-0.1c0,0,0,0-0.1,0c-0.1,0-0.2,0-0.3-0.1
					c0,0-0.1,0-0.1-0.1c-0.1,0-0.2-0.1-0.3-0.1c0,0-0.1,0-0.1-0.1c-0.1,0-0.2-0.1-0.2-0.1c-0.1,0-0.1-0.1-0.1-0.1
					c-0.1,0-0.1-0.1-0.2-0.2c-0.1,0-0.1-0.1-0.1-0.1c-0.1-0.1-0.2-0.2-0.3-0.3l0,0v0c-0.1-0.1-0.1-0.1-0.1-0.1S82.4,47.6,82.4,47.5z
					"/>
			</g>
			<g id="XMLID_71_">
				<path id="XMLID_72_" class="st0" d="M105.5,49.1c-1.1,0-2.1-0.4-2.9-1.2c-0.8-0.8-1.2-1.8-1.2-2.9V4.1c0-1.1,0.4-2.1,1.2-2.9
					c0.8-0.8,1.8-1.2,2.9-1.2h10.6c6.9,0,12.8,2.4,17.6,7.1c4.9,4.8,7.3,10.5,7.3,17.3c0,6.7-2.4,12.5-7.3,17.3
					c-4.9,4.8-10.8,7.2-17.6,7.2L105.5,49.1L105.5,49.1z M109.7,40.9l6.4-0.1c4.6,0,8.6-1.6,11.8-4.8c3.3-3.2,4.9-7,4.9-11.5
					c0-4.5-1.6-8.3-4.9-11.5c-3.3-3.2-7.2-4.8-11.8-4.8h-6.4V40.9z"/>
			</g>
			<g id="XMLID_68_">
				<path id="XMLID_69_" class="st0" d="M180.6,41c1.1,0,2.1,0.4,2.9,1.2c0.8,0.8,1.2,1.8,1.2,2.9c0,1.1-0.4,2.1-1.2,2.8
					c-0.8,0.8-1.8,1.2-2.9,1.2h-25.2c-1.1,0-2.1-0.4-2.9-1.2c-0.8-0.8-1.2-1.7-1.2-2.8v-41c0-1.1,0.4-2.1,1.2-2.9
					c0.8-0.8,1.8-1.2,2.9-1.2h0l25.2,0.1c1.1,0,2.1,0.4,2.9,1.2c0.8,0.8,1.2,1.8,1.2,2.9s-0.4,2.1-1.2,2.8c-0.8,0.8-1.8,1.2-2.9,1.2
					h0l-21-0.1v12.4h15.2c1.1,0,2.1,0.4,2.9,1.2c0.8,0.8,1.2,1.8,1.2,2.9c0,1.1-0.4,2.1-1.2,2.9c-0.8,0.8-1.8,1.2-2.9,1.2h-15.2V41
					H180.6z"/>
			</g>
			<g id="XMLID_64_">
				<path id="XMLID_65_" class="st0" d="M226.5,14.2c0,3-1,5.7-2.9,8.2c-1.8,2.4-4.2,4.1-7.2,5.2l7.9,15.7c0.5,1,0.5,2,0.2,3
					c-0.3,1-1,1.8-2.1,2.3c-0.6,0.3-1.2,0.4-1.8,0.4c-1.7,0-2.9-0.8-3.7-2.3l-9.2-18.3h-7.1v16.3c0,1.1-0.4,2-1.2,2.8
					c-0.8,0.8-1.8,1.2-2.9,1.2c-1.1,0-2.1-0.4-2.9-1.2c-0.8-0.8-1.2-1.7-1.2-2.8V4c0-1.1,0.4-2.1,1.2-2.8c0.8-0.8,1.8-1.2,2.9-1.2
					h14.4c4.3,0,8,1.4,11,4.2C224.9,6.9,226.5,10.3,226.5,14.2z M211.2,20.4c1.9-0.1,3.6-0.7,5-1.9c1.4-1.2,2.1-2.6,2.1-4.3
					c0-1.7-0.7-3.2-2.2-4.4S212.9,8,210.9,8h-10.3v12.4H211.2z"/>
			</g>
			<g id="XMLID_61_">
				<path id="XMLID_62_" class="st0" d="M55.9,69c0.9,0.3,1.6,0.9,2,1.8c0.4,0.9,0.5,1.7,0.2,2.6l-12.8,35.2v0
					c0,0.1-0.1,0.3-0.2,0.4c0,0-0.1,0.1-0.1,0.1c-0.1,0.1-0.2,0.3-0.3,0.4c0-0.1,0,0-0.1,0.1c-0.1,0.1-0.2,0.2-0.3,0.3
					c-0.1,0.1-0.1,0.1-0.1,0.1c-0.1,0.1-0.2,0.2-0.4,0.3c0,0,0,0-0.1,0.1c-0.1,0.1-0.2,0.1-0.4,0.2c-0.1,0-0.1,0-0.1,0
					c-0.1,0.1-0.3,0.1-0.4,0.1c-0.1,0-0.1,0,0,0c-0.1,0-0.3,0.1-0.4,0.1c-0.2,0-0.2,0-0.2,0c-0.2,0-0.4,0.1-0.6,0.1
					c-0.2,0-0.4,0-0.6-0.1c0.1,0,0,0-0.2,0c-0.2,0-0.3,0-0.4-0.1c0,0,0,0-0.1,0c-0.1,0-0.2-0.1-0.4-0.1l-0.1,0
					c-0.1-0.1-0.2-0.1-0.4-0.2c0,0,0,0,0,0l0,0c-0.1-0.1-0.3-0.2-0.4-0.3c0,0,0,0-0.1-0.1c-0.1-0.1-0.2-0.2-0.3-0.3l-0.1-0.1
					c-0.1-0.1-0.2-0.2-0.2-0.4c0,0,0-0.1-0.1-0.1c-0.1-0.2-0.2-0.3-0.2-0.4v0l-9.4-25.9l-9.4,25.9v0c-0.1,0.1-0.1,0.3-0.2,0.4
					c0,0,0,0.1-0.1,0.1c-0.1,0.1-0.2,0.3-0.2,0.4c0-0.1,0,0-0.1,0.1c-0.1,0.1-0.2,0.2-0.3,0.3c-0.1,0.1-0.1,0.1-0.1,0.1
					c-0.1,0.1-0.2,0.2-0.4,0.3c0,0,0,0-0.1,0.1c-0.1,0.1-0.2,0.1-0.4,0.2c-0.1,0-0.1,0-0.1,0c-0.1,0.1-0.3,0.1-0.4,0.1
					c-0.1,0-0.1,0-0.1,0c-0.1,0-0.3,0.1-0.4,0.1c-0.1,0-0.2,0-0.2,0c-0.2,0-0.4,0.1-0.5,0.1c-0.2,0-0.4,0-0.6-0.1c0.1,0,0,0-0.2,0
					c-0.2,0-0.3,0-0.4-0.1c0.1,0,0,0,0,0c-0.1,0-0.3-0.1-0.4-0.1c0,0,0,0-0.1,0c-0.1-0.1-0.2-0.1-0.4-0.2c0,0,0,0-0.1,0c0,0,0,0,0,0
					c-0.1-0.1-0.2-0.2-0.4-0.3c0,0,0,0-0.1-0.1c-0.1-0.1-0.2-0.2-0.3-0.3l0-0.1c-0.1-0.1-0.2-0.2-0.3-0.4c0,0,0-0.1-0.1-0.1
					c-0.1-0.2-0.1-0.3-0.2-0.4l0,0L0.2,73.5c-0.3-0.9-0.3-1.8,0.1-2.6c0.4-0.9,1.1-1.5,2-1.8c0.9-0.3,1.8-0.3,2.7,0.1
					c0.9,0.4,1.5,1.1,1.9,2L16.4,97l9.4-25.9v0c0,0,0-0.1,0.1-0.2c0.1-0.1,0.1-0.2,0.1-0.1c0,0,0,0,0.1-0.1c0.2-0.3,0.4-0.6,0.6-0.8
					c0.3-0.3,0.6-0.5,0.9-0.6c0.1,0,0.1-0.1,0.1-0.1l0.2-0.1c0.1,0,0.2-0.1,0.2-0.1c0,0,0,0,0,0c0,0,0,0,0.1,0c0.1,0,0.1,0,0.2-0.1
					c0,0,0.1,0,0.2,0c0.1,0,0.1,0,0.2,0c0,0,0.1,0,0.2,0c0.1,0,0.1,0,0.2,0h0.3c0.1,0,0.1,0,0.2,0h0.2c0,0,0.1,0,0.2,0l0.1,0
					c0.1,0,0.1,0,0.2,0.1c0,0,0,0,0,0c0,0,0,0,0.1,0v0h0c0,0,0.1,0,0.2,0.1l0.2,0l0.1,0.1c0.3,0.2,0.6,0.4,0.9,0.6
					c0.2,0.2,0.4,0.5,0.6,0.8l0.1,0.1l0.1,0.1c0,0.1,0.1,0.2,0.1,0.2v0L41.9,97l9.4-25.9c0.3-0.9,0.9-1.6,1.8-2
					c0.9-0.4,1.3-0.6,1.3-0.6S55,68.7,55.9,69z"/>
			</g>
			<g id="XMLID_57_">
				<path id="XMLID_58_" class="st0" d="M64.6,110.7c-0.9-0.4-1.6-1-1.9-1.9c-0.4-0.9-0.4-1.8,0-2.6l3.9-9v0l11.2-26.1
					c0-0.1,0.1-0.2,0.2-0.3l0.1-0.1c0.1-0.1,0.1-0.1,0.1-0.1c0,0,0-0.1,0.1-0.1c0.1-0.1,0.1-0.1,0.1-0.1c0,0,0-0.1,0.1-0.1
					c0.1-0.1,0.1-0.1,0.1-0.1c0,0,0.1,0,0.1-0.1c0.1-0.1,0.1-0.1,0.1-0.1c0,0,0,0,0.1-0.1c0.1-0.1,0.1-0.1,0.2-0.1l0.1-0.1
					c0.1-0.1,0.2-0.1,0.2-0.1c0,0,0.1,0,0.2-0.1c0.1-0.1,0.1-0.1,0.1-0.1c0,0,0,0,0.1-0.1c0.1,0,0.2,0,0.2-0.1c0,0,0.1,0,0.2-0.1
					l0.1,0c0,0,0.1,0,0.2,0l0.1,0c0,0,0.1,0,0.2,0c0.1,0,0.1,0,0.2,0c0,0,0.1,0,0.2,0h0.2l0.2,0l0.2,0c0,0,0.1,0,0.2,0.1
					c0.1,0,0.2,0,0.1,0c0.2,0.1,0.5,0.1,0.7,0.3c0,0,0,0,0.1,0.1c0.1,0.1,0.2,0.1,0.2,0.1l0.1,0.1c0.1,0.1,0.1,0.1,0.1,0.1
					c0,0,0.1,0,0.1,0.1c0.1,0.1,0.1,0.1,0.2,0.1c0,0,0,0.1,0.1,0.1c0.1,0.1,0.1,0.1,0.1,0.1l0.1,0.1c0.1,0.1,0.1,0.1,0.1,0.1
					c0,0,0,0.1,0.1,0.1c0.1,0.1,0.1,0.1,0.1,0.1c0.1,0.1,0.1,0.2,0.2,0.3l11.2,26.1v0l3.9,9c0.4,0.9,0.4,1.8,0,2.6
					c-0.4,0.9-1,1.5-1.9,1.9c-0.4,0.2-0.9,0.3-1.4,0.3c-1.6,0-2.7-0.7-3.3-2.1l-2.9-6.8H72.2l-2.9,6.8c-0.6,1.4-1.7,2.1-3.3,2.1
					c-0.5,0-0.7,0-0.7,0S65.1,110.9,64.6,110.7z M86.9,95.1L81,81.5l-5.8,13.6H86.9z"/>
			</g>
			<g id="XMLID_54_">
				<path id="XMLID_55_" class="st0" d="M115.2,75.7h-9c-1,0-1.8-0.3-2.6-1c-0.7-0.7-1-1.5-1-2.4c0-1,0.3-1.8,1-2.4
					c0.7-0.7,1.6-1,2.6-1h25.3c1,0,1.8,0.3,2.5,1c0.7,0.7,1,1.5,1,2.4c0,1-0.3,1.8-1,2.4c-0.7,0.7-1.6,1-2.5,1h-9.1v31.8
					c0,1-0.4,1.8-1.1,2.5c-0.7,0.7-1.5,1-2.5,1s-1.8-0.3-2.5-1c-0.7-0.7-1.1-1.5-1.1-2.5V75.7z"/>
			</g>
			<g id="XMLID_51_">
				<path id="XMLID_52_" class="st0" d="M166.1,104c1,0,1.8,0.3,2.5,1c0.7,0.7,1.1,1.5,1.1,2.5c0,1-0.4,1.8-1.1,2.4
					c-0.7,0.7-1.5,1-2.5,1h-22c-1,0-1.8-0.3-2.5-1c-0.7-0.7-1.1-1.5-1.1-2.4V72.3c0-1,0.4-1.8,1.1-2.5c0.7-0.7,1.5-1,2.5-1h0l22,0.1
					c1,0,1.8,0.3,2.6,1c0.7,0.7,1,1.5,1,2.5c0,1-0.4,1.8-1.1,2.4c-0.7,0.7-1.5,1-2.5,1h0l-18.4-0.1v10.7h13.3c1,0,1.8,0.3,2.6,1
					c0.7,0.7,1.1,1.5,1.1,2.5c0,1-0.4,1.8-1.1,2.5c-0.7,0.7-1.6,1-2.6,1h-13.3V104H166.1z"/>
			</g>
			<g id="XMLID_47_">
				<path id="XMLID_48_" class="st0" d="M206.1,81c0,2.6-0.8,4.9-2.5,7c-1.6,2.1-3.7,3.6-6.3,4.4l6.9,13.5c0.4,0.8,0.5,1.7,0.2,2.6
					c-0.3,0.9-0.9,1.6-1.8,2c-0.5,0.2-1,0.4-1.6,0.4c-1.5,0-2.5-0.6-3.2-1.9l-8.1-15.8h-6.2v14c0,0.9-0.4,1.8-1.1,2.4
					c-0.7,0.7-1.5,1-2.5,1c-1,0-1.8-0.3-2.5-1c-0.7-0.7-1-1.5-1-2.4v-35c0-1,0.3-1.8,1-2.4c0.7-0.7,1.6-1,2.5-1h12.6
					c3.8,0,6.9,1.2,9.6,3.6C204.8,74.7,206.1,77.6,206.1,81z M192.8,86.3c1.7-0.1,3.2-0.6,4.4-1.6c1.2-1,1.8-2.3,1.8-3.7
					c0-1.5-0.6-2.8-1.9-3.8c-1.3-1-2.8-1.6-4.5-1.6h-9v10.7H192.8z"/>
			</g>
		</g>
		<g id="XMLID_41_">
			<g id="XMLID_42_">
				<path id="XMLID_43_" class="st1" d="M229.5,271c-24,0-43.6-19.6-43.6-43.6c0-20.1,14-37.6,33.2-42.3c2.5-5.7,4.9-11.5,7.2-17.3
					c2.7-6.9,5.2-14,7.6-21.1l6.1-18.5l6.6,18.3c2.2,6,4,10.9,5.3,14.4c3.3,8.8,6.3,17.2,11.5,31.6l3.1,8.6
					c0.8,2.3,2.8,7.7,4.5,14.9c1.1,4.9,1.8,9.2,2,10.7l0,0c0.9,8.9-3.9,20.9-11.9,29.7C252.6,265.8,241.4,271,229.5,271z
					 M240.4,168.6c-0.5,1.3-1,2.7-1.5,4c-2.8,7.1-5.7,14.2-8.9,21.1l-1.5,3.3l-3.6,0.5c-14.6,2.2-25.5,15-25.5,29.8
					c0,16.6,13.5,30.1,30.1,30.1c10.3,0,17.5-5.5,21.6-10.1c6.1-6.8,9-15,8.5-19.4c-0.1-0.8-0.6-4.5-1.7-9c-1.5-6.4-3.2-11.1-4-13.3
					l-3.1-8.6C246.2,184.4,243.2,176.4,240.4,168.6z"/>
			</g>
		</g>
		<g id="XMLID_34_">
			<g id="XMLID_39_">
				<circle id="XMLID_40_" cx="178.1" cy="207.7" r="56.6"/>
			</g>
			<g id="XMLID_35_">
				<path id="XMLID_36_" class="st1" d="M178.1,271c-34.9,0-63.3-28.4-63.3-63.3c0-34.9,28.4-63.3,63.3-63.3s63.3,28.4,63.3,63.3
					C241.4,242.6,213,271,178.1,271z M178.1,157.8c-27.5,0-49.9,22.4-49.9,49.9c0,27.5,22.4,49.9,49.9,49.9s49.9-22.4,49.9-49.9
					C227.9,180.2,205.6,157.8,178.1,157.8z"/>
			</g>
		</g>
		<g id="XMLID_31_">
			<g id="XMLID_32_">
				<polygon id="XMLID_33_" class="st1" points="89.8,258 124.8,223 134.4,232.5 125,241.9 138.9,240.9 139.9,254.3 				"/>
			</g>
		</g>
		<circle id="XMLID_30_" class="st2" cx="177.8" cy="207.9" r="50.1"/>
	</g>
	<rect id="XMLID_28_" x="369.8" y="91.2" class="st3" width="481.4" height="133.2"/>
	<path id="XMLID_27_" class="st3" d="M373.5,151c-0.6-0.3-35.4-4.8-35.4-4.8s-8.5-1.1-0.5-5.4c8-4.3,42.4-22.4,42.4-22.4"/>
	<rect id="XMLID_26_" x="394.3" y="118.4" class="st4" width="456.9" height="144.4"/>
	<text id="XMLID_25_" transform="matrix(1 0 0 1 394.3022 152.7529)"><tspan x="0" y="0" class="st5 st6 st7">一群97后倾力打造的</tspan><tspan x="0" y="50" class="st5 st6 st7">蛙系青年社区</tspan></text>
	<rect id="XMLID_24_" x="378.9" y="107.6" class="st8" width="9.5" height="56.4"/>
</g>
</svg>
